<svg width="199" height="102" viewBox="0 0 199 102" fill="none" xmlns="http://www.w3.org/2000/svg">
<g clip-path="url(#clip0_20_339)">
<path d="M31.1643 70.8354C33.1767 67.9603 35.7187 65.5963 38.7055 65.1065C41.5652 64.6167 44.785 65.9797 47.3058 67.0658C52.5168 69.3872 55.4401 70.7928 59.7191 74.3495C63.0872 77.1607 66.7518 79.8654 69.3362 83.486C71.5816 86.5741 72.4077 90.4927 75.2886 93.091C78.8897 96.3282 79.0168 97.031 74.992 99.6931C62.3669 108.127 53.576 110.64 38.3877 107.999C31.4185 106.764 26.5888 105.443 25.4025 98.1384C24.4705 92.3669 25.1059 85.1684 26.8641 79.6312C27.7538 77.0116 29.1731 73.668 31.1643 70.8354Z" fill="#FFC40C"/>
<path d="M39.7011 80.7386C37.9005 83.9758 36.5872 87.6815 36.5872 90.2159C36.5448 95.8383 45.6323 97.2865 49.7842 97.1161C55.4825 96.8819 61.5196 96.3281 67.1755 95.5827C65.1419 97.031 62.9177 98.2023 60.5664 99.1181C55.5036 101.12 50.2079 102.653 44.9121 103.378C39.1715 104.166 31.9693 105.124 28.9825 98.5431C26.8641 93.8151 27.3302 89.0658 27.6691 84.0823C28.0292 79.1626 32.0116 73.9661 35.8669 71.1123C36.8202 70.3882 38.0276 70.0048 39.3833 69.7918C46.3737 68.7696 50.6103 72.7096 55.1859 77.3524C56.7323 78.9496 58.0032 80.8664 59.7191 82.272C61.562 83.8054 64.4429 85.5518 66.7095 87.4898C63.0024 86.4888 59.1259 83.6137 55.9697 81.5479C53.3641 79.8441 50.7163 78.0339 47.7506 77.0329C43.5988 75.606 41.7982 77.0755 39.7011 80.7386Z" fill="#FFFA50"/>
<path d="M66.4129 87.2982C68.7854 88.6399 72.0264 91.0678 71.0096 93.4956C70.0563 95.7318 65.5232 96.9032 63.4684 97.2865C60.291 97.8829 57.0923 98.0745 53.9149 98.4579C51.3305 98.7773 49.2334 99.5227 46.6067 99.0329C41.6499 98.1171 37.5192 97.2014 36.8625 91.7493C36.0152 84.8277 41.9464 72.0281 50.8433 75.606C54.0208 76.8838 55.1223 79.4821 57.3465 81.6544C59.5072 83.7841 62.261 85.2536 64.9724 86.5102C65.3537 86.7231 65.8621 86.9787 66.4129 87.2982Z" fill="#FFE62E"/>
<path d="M38.7055 65.1065C41.5652 64.6167 44.785 65.9797 47.3058 67.0658C52.5168 69.3872 55.4401 70.7928 59.7191 74.3495C63.0872 77.1607 66.7518 79.8654 69.3362 83.486C70.4165 84.9768 71.1791 86.6805 72.0052 88.3417C71.3909 87.4898 70.7766 86.6593 70.0564 85.9777C67.4721 83.4008 64.8454 80.6534 61.7738 78.6728C61.7314 78.6515 61.6891 78.6302 61.6679 78.6089C56.478 73.9448 49.8689 70.0048 44.785 70.516C36.2271 71.3892 29.8298 80.0145 29.2155 88.3843C28.3046 100.396 37.5828 105.017 48.4285 104.315C57.8338 103.718 70.0352 102.27 77.5552 95.9448C77.6611 95.9022 77.7247 95.8809 77.8094 95.8383C78.4237 97.0949 77.5552 97.9894 74.992 99.6931C62.3669 108.127 53.576 110.64 38.3877 107.999C31.4185 106.764 26.5888 105.443 25.4025 98.1384C24.4705 92.3669 25.1059 85.1684 26.8641 79.6312C27.7115 77.0116 29.1519 73.668 31.1219 70.8354C33.1979 67.9603 35.7187 65.5963 38.7055 65.1065Z" fill="#EF9818"/>
<path d="M33.219 81.7822C34.3841 78.9923 36.2694 76.5857 38.7266 74.456C41.1839 72.2837 43.4928 72.5392 40.9509 75.6273C36.8413 80.6748 34.7654 83.486 34.9772 90.1307C34.9984 91.8558 36.4812 96.4347 35.3373 97.3292C31.9057 95.9236 31.6515 90.5993 31.8845 87.4899C32.0328 85.424 32.4776 83.5286 33.219 81.7822Z" fill="white"/>
<path d="M67.6203 91.4085C67.5779 91.0251 67.4932 90.6418 67.3661 90.3649C66.9424 89.4917 65.9045 88.7463 65.1207 88.2139C64.4005 87.7241 63.4684 87.4046 63.0659 86.5953C63.9556 86.1268 65.9892 87.5111 66.7094 87.9796C67.7262 88.6399 68.7642 89.3853 69.5268 90.3649C70.0987 91.089 70.48 91.9409 70.2893 92.878C70.0987 93.7512 69.5479 94.5392 68.5947 94.0067C67.7897 93.5808 67.7686 92.4095 67.6203 91.4085Z" fill="white"/>
</g>
<g clip-path="url(#clip1_20_339)">
<path d="M98.42 45.82C101.34 43.42 105.27 42.71 109.01 42.19C110.29 42.01 111.61 41.85 112.86 42.19C114.85 42.72 116.54 44.48 118.6 44.32C119.17 44.28 119.77 44.08 120.3 44.29C120.99 44.56 121.28 45.43 121.14 46.16C121 46.89 120.54 47.51 120.09 48.1C114.74 55.08 108.82 62.46 100.37 64.89C98.18 65.52 95.59 65.77 93.47 64.76C90.75 63.47 90.73 61.38 91.31 58.73C92.35 53.87 94.5 49.05 98.42 45.82Z" fill="#D5D458"/>
<path opacity="0.62" d="M93.8199 64.91C96.5899 64.53 99.1199 63.22 101.49 61.81C103.44 60.65 105.53 59.45 107.31 58.05C108.51 57.11 109.21 55.69 109.88 54.32C110.34 53.38 110.8 52.44 111.26 51.49C111.52 50.96 111.78 50.42 111.85 49.83C110.65 50.27 109.45 50.71 108.26 51.15C109.22 50.8 110.36 49.35 111.14 48.67C111.54 48.33 112.98 47.48 112.48 46.74C112.28 46.44 111.89 46.34 111.53 46.29C110.4 46.12 109.22 46.24 108.14 46.63C108.89 45.76 110.07 45.4 111.2 45.2C111.5 45.15 111.83 45.09 112.04 44.86C111.71 44.56 111.22 44.51 110.77 44.49C108.34 44.38 105.89 44.64 103.54 45.25C104.34 44.85 105.14 44.46 105.99 44.19C106.54 44.02 107.11 43.9 107.67 43.78C108.88 43.53 110.09 43.28 111.31 43.03C110.36 42.47 108.76 42.49 107.71 42.68C106.9 42.83 106 42.66 105.21 42.83C106.46 42.56 107.74 42.36 109 42.19C110.28 42.01 111.6 41.85 112.85 42.19C114.84 42.72 116.53 44.48 118.59 44.32C119.16 44.28 119.76 44.08 120.29 44.29C120.98 44.56 121.27 45.43 121.13 46.16C121 46.89 120.54 47.51 120.09 48.1C114.74 55.08 108.82 62.46 100.37 64.89C98.2999 65.48 95.8699 65.73 93.8199 64.91Z" fill="#BFB939"/>
<path opacity="0.62" d="M117.05 48.3601C116.13 46.8201 116.65 45.5301 116.99 44.0801C117.51 44.2601 118.04 44.3601 118.6 44.3201C119.17 44.2801 119.77 44.0801 120.3 44.2901C120.99 44.5601 121.28 45.4301 121.14 46.1601C121 46.8901 120.54 47.5101 120.09 48.1001C119.59 48.7601 119.07 49.4201 118.56 50.0801C118.01 49.5501 117.45 49.0401 117.05 48.3601Z" fill="#FFEC9C"/>
<path opacity="0.68" d="M116.98 48.6101C117 48.5001 117.01 48.3901 117.01 48.2701C118.06 48.7201 119.19 47.8901 119.44 46.8301C119.61 46.1201 119.85 45.3901 119.47 44.7601C119.49 44.6201 119.17 44.3901 119.14 44.2501C119.54 44.1901 119.94 44.1501 120.31 44.2901C121 44.5601 121.29 45.4301 121.15 46.1601C121 46.8901 120.54 47.5101 120.09 48.1001C119.52 48.8401 118.95 49.5901 118.36 50.3301C117.55 49.9101 116.84 49.3201 116.98 48.6101Z" fill="#E8B769"/>
<path opacity="0.44" d="M99.76 47.7601C101.47 46.5801 103.37 45.6501 105.39 45.1801C107.95 44.5801 110.72 44.7401 113.09 45.8801C114.39 46.5001 115.63 47.5601 115.83 48.9801C116.18 51.5401 114.61 53.2401 113.17 55.0501C111.43 57.2501 109.17 59.0101 106.71 60.3601C103.58 62.0701 100.13 63.1301 96.65 63.9301C95.34 64.2301 93.72 64.4001 92.88 63.3401C92.3 62.6101 92.35 61.5701 92.49 60.6501C93.23 55.6801 95.58 50.6501 99.76 47.7601Z" fill="#E5DF6E"/>
<path opacity="0.65" d="M118.37 50.0701C118.4 50.0301 118.42 50.0001 118.45 49.9701C119.06 49.1101 119.96 47.5301 120.17 46.4901C120.4 45.3601 120.23 44.5301 119.34 44.2301C119.67 44.1901 120 44.1701 120.3 44.2901C120.99 44.5601 121.28 45.4301 121.14 46.1601C121 46.8901 120.54 47.5101 120.09 48.1001C119.55 48.8001 119 49.5101 118.45 50.2101C118.42 50.1601 118.4 50.1101 118.37 50.0701Z" fill="#A57329"/>
<path d="M96.87 61.8701C96.71 61.9401 96.55 62.0101 96.39 62.0901C95.62 62.4501 94.44 63.0501 93.58 62.7301C92.57 62.3501 92.96 60.0901 93.14 59.1801C93.67 56.4101 95.45 54.3001 97.24 52.5301C98.17 51.6001 99.33 50.9001 100.61 50.8201C101.14 50.7901 101.68 50.8601 102.21 50.8001C103.32 50.6801 104.3 49.9001 105.42 49.8701C106.1 49.8501 107.06 49.9501 107.72 50.1401C108.27 50.3001 108.81 50.7301 108.98 51.3401C109.16 51.9701 108.92 52.6201 108.66 53.1701C106.92 56.8501 103.83 59.5901 100.24 60.6401C99.04 60.9901 97.98 61.3701 96.87 61.8701Z" fill="#E5DF6E"/>
<path opacity="0.77" d="M93.46 64.76C92.7 64.4 92.15 63.97 91.77 63.49C92.24 64.08 94.28 63.7 94.9 63.64C96.34 63.49 97.75 63.16 99.12 62.71C104.07 61.09 110.01 58.38 112.18 53.3C111.75 53.53 111.32 53.76 110.89 53.99C111.78 52.47 112.82 51.03 114.01 49.73C114.18 49.55 114.33 49.22 114.12 49.09C114.06 49.05 113.98 49.05 113.91 49.02C113.66 48.91 113.71 48.55 113.67 48.28C113.44 46.78 106.97 48.31 106.09 48.96C107.42 47.97 108.97 47.29 110.6 46.98C111.5 46.81 112.41 46.75 113.3 46.55C113.43 46.52 113.57 46.48 113.66 46.39C113.83 46.2 113.73 45.87 113.53 45.72C113.37 45.61 111.92 45.19 111.8 45.27C112.32 44.94 112.88 44.68 113.46 44.5C113.04 44.45 112.65 44.28 112.33 44C113.07 43.96 113.81 43.82 114.52 43.61C113.57 43.03 112.5 42.65 111.39 42.49C110.91 42.42 110.41 42.51 109.95 42.45C109.65 42.41 109.32 42.17 109.01 42.21C110.29 42.03 111.61 41.87 112.86 42.21C114.44 42.63 115.83 43.82 117.37 44.22C116.88 44.91 116.62 45.79 116.6 46.62C116.57 48.01 117.54 49.57 119.05 49.45C113.97 56.01 108.27 62.63 100.36 64.9C98.18 65.52 95.59 65.76 93.46 64.76Z" fill="#B9BC37"/>
<path opacity="0.68" d="M93.46 64.76C93.15 64.61 92.89 64.45 92.65 64.29C98.46 66.43 104.69 63.01 109.15 59.27C110.48 58.16 111.77 56.98 112.95 55.71C114.51 54.03 115.55 52.14 116.77 50.23C115.29 50.15 113.96 51.09 112.78 51.98C113.43 51.01 114.56 50.49 115.38 49.67C115.58 49.47 115.78 49.17 115.66 48.91C115.47 48.5 114.72 48.61 114.6 48.18C114.86 47.96 115.12 47.74 115.38 47.52C115.25 47.37 115.07 47.27 114.88 47.25C115.07 46.7 115.93 46.52 115.95 45.94C115.96 45.56 115.59 45.29 115.23 45.17C114.87 45.05 114.47 44.98 114.22 44.71C114.85 44.6 115.49 44.59 116.12 44.7C115.8 44.65 115.27 43.27 114.84 43.04C115.69 43.49 116.52 43.98 117.39 44.2C116.9 44.89 116.64 45.77 116.62 46.6C116.59 47.99 117.56 49.55 119.07 49.43C113.99 55.99 108.29 62.61 100.38 64.88C98.18 65.52 95.59 65.76 93.46 64.76Z" fill="#A29720"/>
<path opacity="0.75" d="M93.46 64.7601C93.15 64.6101 92.89 64.4501 92.65 64.2901C98.46 66.4301 104.69 63.0101 109.15 59.2701C111.63 57.1901 113.77 55.3801 115.41 52.5501C115.95 51.6301 116.48 50.7101 117.02 49.7901C117.06 49.7201 117.11 49.6401 117.12 49.5501C117.15 49.3401 116.94 49.1501 116.73 49.1101C116.52 49.0701 116.3 49.1401 116.1 49.2101C116.32 49.0601 116.55 48.9001 116.68 48.6701C116.81 48.4401 116.81 48.1101 116.6 47.9401C116.44 47.8101 116.22 47.8101 116.02 47.8101C115.33 47.8201 114.64 47.8201 113.95 47.8301C114.75 47.5001 115.55 47.1701 116.35 46.8401C116.11 46.6101 116.15 46.2201 116.15 45.8901C116.15 45.5501 116 45.1301 115.67 45.1201C115.97 45.0101 116.26 44.9001 116.56 44.7901C116.42 44.4601 116.27 44.1601 116.24 43.8101C116.34 43.8501 117.31 44.2901 117.36 44.2101C116.87 44.9001 116.61 45.7801 116.59 46.6101C116.56 48.0001 117.53 49.5601 119.04 49.4401C113.96 56.0001 108.26 62.6201 100.35 64.8901C98.18 65.5201 95.59 65.7601 93.46 64.7601Z" fill="#8A720B"/>
<path opacity="0.42" d="M118.95 45.71C119.09 45.71 119.23 45.71 119.35 45.77C119.47 45.82 119.58 45.95 119.57 46.08C119.57 46.16 119.53 46.23 119.49 46.29C119.16 46.84 118.76 47.35 118.3 47.79C118.06 48.02 117.73 48.24 117.43 48.11C117.19 48.01 117.09 47.72 117.05 47.46C117 47.2 117 46.92 117 46.65C117 46.11 117 45.31 117.5 44.94C118.17 44.45 118.98 44.9 118.95 45.71Z" fill="#FFF69E"/>
<path d="M118.35 45.26C118.46 45.24 118.62 45.25 118.64 45.36C118.66 45.44 118.58 45.52 118.59 45.6C118.6 45.72 118.78 45.78 118.79 45.9C118.8 45.96 118.75 46.02 118.71 46.07C118.42 46.42 118.11 46.75 117.78 47.07C117.62 47.23 117.38 47.38 117.2 47.25C117.12 47.19 117.08 47.08 117.06 46.97C116.89 45.98 117.41 45.42 118.35 45.26Z" fill="#FBEF95"/>
<path opacity="0.34" d="M95.2799 52.7301C96.2799 51.3101 97.5499 50.0501 99.1299 49.3201C97.2799 51.0501 95.6899 53.0501 94.3799 55.2101C94.2099 55.5001 94.0399 55.7801 93.8799 56.0701C93.7399 56.3301 93.5199 56.5401 93.3899 56.7901C92.9699 57.6201 92.6399 58.4901 92.3999 59.3901C92.3499 59.5801 92.2999 59.7701 92.1899 59.9201C92.2799 59.7901 92.2199 59.2401 92.2499 59.0601C92.2999 58.7301 92.3799 58.4001 92.4799 58.0801C92.6799 57.4901 93.0499 57.0001 93.2799 56.4401C93.8099 55.1501 94.4699 53.8901 95.2799 52.7301Z" fill="#BFB939"/>
<path opacity="0.34" d="M99.25 46.35C100.56 45.22 102.11 44.31 103.81 43.98C101.6 45.21 99.57 46.75 97.77 48.53C97.53 48.77 97.3 49 97.07 49.25C96.87 49.46 96.6 49.61 96.42 49.82C95.81 50.52 95.28 51.29 94.82 52.1C94.73 52.27 94.63 52.44 94.49 52.56C94.61 52.46 94.69 51.91 94.75 51.74C94.88 51.43 95.03 51.13 95.21 50.85C95.55 50.33 96.03 49.95 96.39 49.45C97.24 48.33 98.18 47.27 99.25 46.35Z" fill="#BFB939"/>
<path opacity="0.34" d="M94.17 57.34C94.97 56.32 95.98 55.42 97.19 54.92C95.74 56.15 94.46 57.58 93.4 59.15C93.27 59.35 93.13 59.56 93 59.77C92.88 59.96 92.71 60.11 92.61 60.29C92.27 60.89 91.99 61.53 91.78 62.18C91.74 62.32 91.69 62.45 91.6 62.57C91.67 62.48 91.64 62.07 91.67 61.94C91.72 61.7 91.79 61.46 91.88 61.23C92.05 60.8 92.35 60.45 92.54 60.04C92.98 59.08 93.52 58.17 94.17 57.34Z" fill="#BFB939"/>
<path opacity="0.34" d="M107.91 56.35C107 57.4 105.88 58.31 104.56 58.77C106.18 57.53 107.62 56.06 108.84 54.44C109 54.23 109.16 54.01 109.31 53.79C109.44 53.59 109.64 53.44 109.76 53.26C110.16 52.63 110.49 51.96 110.76 51.27C110.81 51.13 110.87 50.98 110.97 50.86C110.88 50.96 110.89 51.4 110.86 51.54C110.8 51.8 110.71 52.05 110.6 52.3C110.4 52.76 110.06 53.11 109.83 53.55C109.28 54.54 108.65 55.49 107.91 56.35Z" fill="#BFB939"/>
</g>
<path d="M52.7203 38.8522C52.685 40.3986 52.6901 41.9031 52.5839 43.4493C52.5035 44.649 53.0746 45.7181 52.9262 46.8995C52.7339 48.4245 51.9021 48.2837 50.3865 48.5444C48.5673 48.8608 46.7444 49.0835 44.9367 49.398C42.5033 49.8213 39.8788 49.6915 37.4998 49.0079C32.8165 47.6637 28.755 44.9306 25.3974 41.4149C19.1301 34.8471 15.4082 25.016 15.0582 15.983C14.9767 13.9776 14.75 11.0869 13.5167 9.40053C12.6481 8.20911 10.5637 6.87499 13.2152 6.95311C14.7817 7.0028 15.9164 7.83767 17.2903 8.36762C18.6823 8.90049 20.1838 8.91363 21.6756 9.01102C23.0878 9.09195 24.4883 9.31648 25.886 9.48835C34.9817 10.5624 41.9822 18.0723 46.9872 25.1131C49.9325 29.2455 52.8266 33.6047 52.7203 38.8522Z" fill="#78AF02"/>
<path opacity="0.42" d="M46.7388 49.1198C46.1391 49.2065 45.5346 49.2999 44.9435 49.4028C42.5102 49.8261 39.8857 49.6963 37.5067 49.0127C32.8233 47.6685 28.7619 44.9354 25.4043 41.4197C19.1303 34.8471 15.4084 25.016 15.0584 15.983C14.9769 13.9776 14.7502 11.0869 13.5169 9.40053C12.6483 8.20912 10.5639 6.87499 13.2154 6.95312C14.4075 6.98755 15.3572 7.48681 16.3425 7.95072C18.0391 9.65547 18.8506 11.9011 20.4021 13.8363C21.0399 14.6288 21.722 15.3314 22.2936 16.1879C22.4348 16.4008 23.5596 18.9727 23.4285 18.9293C21.7369 18.3335 20.6202 17.1769 19.4752 15.8479C18.4906 14.7051 17.1342 12.484 15.5798 12.149C14.0429 15.3351 18.8492 18.1466 20.4477 20.0446C18.8539 19.3973 17.8521 17.8263 16.3284 17.0671C16.8539 18.0021 16.3812 19.4374 16.8488 20.5234C17.3317 21.6306 18.1643 22.279 19.2952 22.6954C21.0757 23.3652 22.755 23.9217 24.5307 24.2027C26.4155 24.5011 28.4576 23.8883 30.0815 25.1859C28.8191 26.5207 25.3457 25.3556 23.891 24.9806C23.0594 24.7689 16.7776 22.7133 16.8376 22.4319C15.7246 27.768 23.4299 30.0443 27.1549 30.0819C28.396 30.0906 29.6411 29.9806 30.8813 29.9481C31.522 29.9314 33.6928 30.3541 34.1647 30.0641C30.6182 32.2639 25.6394 31.5291 21.9569 30.1328C21.1015 29.8128 20.2474 29.3923 19.378 29.3462C17.6603 33.2645 23.3393 34.3093 25.8161 34.546C27.8486 34.7376 29.9262 35.3468 31.9757 35.2463C33.4458 35.1761 34.8229 34.3596 36.2693 34.1811C34.6191 35.491 32.0325 35.9158 29.9725 35.9885C27.5007 36.0697 24.9431 34.8015 22.4926 35.1922C21.869 36.8943 25.5231 39.3755 26.7551 39.976C29.1425 41.1423 32.4686 41.0152 35.0665 41.0549C36.5335 41.0737 37.9552 40.4211 39.3247 39.9541C40.1413 39.6784 42.5873 39.5482 43.1429 39.0851C41.8696 40.1383 39.8899 40.6641 38.2937 41.0089C37.2733 41.2296 36.2444 41.434 35.2051 41.5397C34.2808 41.6266 32.9516 41.2605 32.1026 41.4826C29.7722 42.1014 31.1998 43.7854 32.7388 44.1702C36.1459 45.0037 39.3634 45.042 42.7615 44.419C41.0706 44.7262 39.7004 45.4766 37.8032 45.5344C35.9108 45.5854 34.1332 44.8974 32.1932 45.2692C32.2973 47.4126 39.6023 48.0428 41.0901 48.1881C42.8173 48.353 44.4946 48.1071 46.1334 47.59C46.9911 47.3134 48.492 46.3527 49.5929 46.1188C49.9014 46.0563 50.1715 46.0474 50.3858 46.1302C50.6001 46.2131 47.7379 48.5898 47.3726 48.7737C47.1607 48.8853 46.944 49.0035 46.7388 49.1198Z" fill="#A3CE24"/>
<path opacity="0.42" d="M37.5067 49.0126C32.8233 47.6685 28.7619 44.9354 25.4043 41.4197C19.1303 34.8471 15.4084 25.016 15.0584 15.983C14.9769 13.9775 14.7502 11.0869 13.5169 9.40052C12.6483 8.2091 10.5639 6.87497 13.2153 6.9531C14.7158 6.99593 15.8162 7.76559 17.1125 8.29057C18.2299 9.1637 19.1517 10.1398 19.6262 11.5553C19.6613 11.6617 19.6984 11.7795 19.7288 11.8926C20.4058 14.3256 18.5973 13.7372 17.1049 14.3187C14.746 15.2315 17.4067 17.4863 18.7416 18.2823C19.8528 18.9381 22.0847 19.0497 22.711 20.2395C20.9354 21.5406 18.6487 19.9091 16.8421 19.3321C16.1842 22.9465 22.0014 23.8979 24.6389 23.7835C27.8118 23.6579 25.5276 25.3848 23.8237 25.9362C22.7254 26.2936 21.7877 26.3709 20.6359 26.2944C19.8125 26.2407 18.6105 25.895 17.8956 26.1423C19.6614 27.7649 21.5481 28.8658 23.9942 29.5266C25.2622 29.8792 27.0223 30.2808 28.3829 30.3348C29.5884 30.3788 30.9726 29.8209 32.0589 30.4689C31.7959 31.9229 28.0814 32.3086 26.9139 32.3528C24.105 32.4658 22.0484 31.9122 19.4294 31.0968C19.4459 32.2038 20.9406 33.4695 21.8115 34.0644C23.0736 34.9196 24.6986 34.9302 26.167 35.1731C27.8852 35.4635 29.6944 35.7685 31.428 35.6137C32.4807 35.5175 34.9886 34.3265 35.8148 34.8283C35.2474 36.226 32.6624 37.1995 31.3446 37.6934C28.9982 38.5746 26.1421 38.4002 23.8269 37.4581C23.8515 38.3986 26.0299 39.6582 26.8103 40.0967C30.8384 42.3395 35.4889 41.3987 39.7238 40.048C40.7617 39.7181 41.9682 38.9415 41.3714 40.6628C41.0416 41.6024 40.1621 42.1778 39.2438 42.5529C36.4832 43.7146 33.3653 42.8454 30.5149 43.101C31.899 43.7296 33.5941 44.4901 35.1279 44.6278C37.6968 45.5695 40.8003 44.015 43.2478 44.8999C41.7146 46.1316 39.8897 46.4136 37.9633 46.2577C36.6957 46.1589 35.0528 45.2127 33.8052 45.5239C32.528 45.834 32.7475 46.5594 33.7667 47.2303C35.4829 48.371 38.0543 47.8543 39.9821 48.2342C40.854 48.4039 41.2214 48.1606 40.8635 49.2524C40.8278 49.3586 40.7692 49.4686 40.6971 49.5689C39.6161 49.4926 38.5412 49.3091 37.5067 49.0126Z" fill="#A3CE24"/>
<path opacity="0.42" d="M34.9452 44.5575C35.0083 44.5825 35.0695 44.5961 35.1327 44.6211C35.1739 44.6203 35.2236 44.6357 35.2648 44.6349C35.1567 44.5877 35.0524 44.5635 34.9452 44.5575Z" fill="#A3CE24"/>
<path d="M44.9435 49.4029C42.5102 49.8261 39.8857 49.6963 37.5067 49.0127C37.0923 48.8977 36.6838 48.7464 36.2838 48.6114C36.7805 48.7246 37.2639 48.8282 37.6918 48.8819C39.9176 49.1716 43.2692 49.1643 45.179 47.8176C45.6174 47.5036 45.9602 47.1109 46.2026 46.646C47.0261 45.0469 44.7904 44.5168 43.6827 44.4213C41.877 44.281 40.0081 44.9066 38.2283 45.1399C36.0721 45.4173 32.4217 45.0074 30.1173 43.5559C33.7444 44.9023 42.5774 45.7066 43.7182 41.1511C43.7714 40.9358 43.7098 40.6684 43.4725 40.5894C41.1395 39.8982 38.9912 40.8708 36.6434 41.1324C34.4011 41.3885 28.0441 40.7088 27.0704 40.243C30.5216 40.662 34.756 40.3149 37.5664 38.7731C39.2493 37.8415 38.061 35.7817 36.6727 35.2719C34.7611 34.5587 32.6203 35.5773 30.6058 35.4595C28.3126 35.3343 26.0666 35.1011 23.8269 34.6189C23.2345 34.4978 22.6691 34.2541 22.0845 34.0373C20.9967 33.6315 19.914 33.0774 19.4196 31.9721C20.9913 33.4553 23.221 33.6972 25.244 33.9021C27.4517 34.118 29.6547 34.3407 31.658 33.1321C32.3513 32.7172 34.4648 31.4965 33.7463 30.3926C33.1214 29.4268 30.2468 29.7867 29.2708 29.8466C27.135 29.9967 25.2627 29.6666 23.1836 29.2997C21.3295 28.9726 19.9453 28.344 18.5724 26.9934C20.9824 28.3685 23.7318 28.7198 26.4596 28.5079C27.7593 28.4066 30.6579 27.6177 29.4722 25.6815C28.4926 24.0656 25.7804 24.5523 24.233 24.5467C21.9146 24.5556 19.4328 23.21 17.4751 22.1089C18.7665 22.3159 19.9725 22.9383 21.2997 22.9683C21.992 22.9786 23.4217 23.0212 23.9827 22.6635C25.2266 21.863 23.7874 21.4382 23.0631 21.1617C21.0052 20.384 19.4199 19.3575 17.7541 17.9487C16.397 16.8021 15.6667 15.4463 15.1488 13.7664C15.7937 15.6084 17.298 16.4652 18.8172 17.4849C19.9435 18.2326 21.3696 19.3679 22.8031 18.5717C23.1224 18.3953 23.1941 18.0411 23.5122 17.9653C24.0794 17.8249 24.5513 18.3259 24.9662 18.6237C25.3543 18.9023 25.7687 19.0173 26.1694 19.2643C27.1762 19.8959 27.1071 21.1646 27.6229 22.1129C28.1931 23.1408 29.1393 23.9417 29.9445 24.7834C30.9504 25.8401 31.9466 26.9102 32.941 27.9689C34.8944 30.0506 36.84 32.1571 38.8049 34.237C41.424 37.0298 43.9846 39.8618 46.4435 42.7932C48.1824 44.8629 49.4226 46.0169 51.947 46.7947C52.1776 46.869 52.5173 46.9608 52.9039 47.0862C52.6672 48.3765 51.8429 48.2816 50.4078 48.5291C48.5741 48.8657 46.7513 49.0883 44.9435 49.4029Z" fill="#6D9E02"/>
<path d="M45.9435 44.4927C44.2983 43.2813 42.8117 41.849 41.2645 40.5152C37.8595 37.5739 34.1453 34.5831 31.3489 31.0342C28.4713 27.3866 25.5993 23.8442 22.9942 19.9865C20.5589 16.3725 18.012 12.2219 14.8177 9.26961C14.1421 8.64268 13.1332 8.07051 12.3077 7.68071C12.2178 7.63645 12.1116 7.60077 11.9939 7.56697C11.8043 7.1672 12.0347 6.91685 13.2269 6.95128C14.7934 7.00097 15.9281 7.83583 17.302 8.36578C18.694 8.89865 20.1955 8.9118 21.6872 9.00919C23.0995 9.09011 24.5 9.31465 25.8977 9.48651C34.9934 10.5605 41.9939 18.0705 46.9989 25.1113C49.9394 29.2504 52.8335 33.6096 52.7205 38.8522C52.6852 40.3987 52.6903 41.9031 52.5841 43.4494C52.5037 44.6491 53.0748 45.7182 52.9264 46.8995C52.8473 47.5323 52.655 47.8709 52.3462 48.0751C50.1027 47.1744 48.0322 46.0327 45.9435 44.4927Z" fill="#61A304"/>
<path opacity="0.6" d="M14.8062 9.27144C14.1307 8.64452 13.1217 8.07234 12.2963 7.68254C12.2063 7.63828 12.1001 7.60259 11.9824 7.5688C11.7928 7.16902 12.0232 6.91868 13.2154 6.95311C13.3274 6.95242 13.4366 6.96992 13.539 6.98261C13.4976 7.05434 13.4697 7.13566 13.4733 7.22952C13.4913 7.69879 14.33 8.16906 14.6713 8.41406C15.2353 8.82909 15.6066 9.32889 16.0363 9.86043C17.565 11.7285 18.8693 13.7397 20.4047 15.6126C21.2029 16.5913 23.0354 20.3811 24.3747 20.5212C25.5868 20.6409 25.007 19.2309 24.7372 18.3071C24.4266 17.2425 23.841 16.6598 23.3663 15.7107C22.8622 14.6896 22.5718 13.5685 21.9258 12.618C21.149 11.4823 20.2843 10.6385 19.3885 9.64048C20.9863 10.2399 22.1891 12.6042 23.062 14.0016C24.2946 15.9714 25.2111 17.9578 25.7832 20.1837C26.2577 21.9947 26.5893 23.5104 27.8893 24.9202C28.1051 25.1563 28.4426 25.7738 28.7993 25.5736C29.2846 25.2932 28.9951 24.2133 29.0565 23.7605C29.2071 22.8444 29.4303 22.0108 29.468 21.0543C29.5352 19.3786 29.3362 17.664 29.2914 15.989C29.2479 14.5382 28.8391 12.8757 28.1105 11.6023C29.8023 14.5711 30.6553 17.4651 30.3665 20.9185C30.271 22.0262 30.3726 23.1842 30.2226 24.2832C30.0647 25.4071 29.9289 26.5568 30.4406 27.6239C30.9228 28.619 31.8247 29.5098 32.5609 30.3629C33.5694 31.5432 34.0551 31.0502 34.4097 29.7228C35.0232 27.4557 34.7721 25.1358 35.2045 22.8807C35.5982 20.8208 34.9028 18.4558 34.6884 16.3955C34.5249 14.7164 34.038 13.2616 33.3642 11.926C33.4158 11.9529 33.4675 11.9799 33.5191 12.0068C33.5774 12.0386 33.6358 12.0703 33.696 12.1135C35.9133 14.7599 36.0778 18.4576 36.5131 21.863C36.5142 22.2288 36.5104 22.6013 36.5066 22.9738C36.44 25.2278 36.3378 27.5172 36.4493 29.7775C36.525 31.3529 36.319 33.0101 37.777 34.0161C38.322 34.3871 39.156 34.7932 39.7126 34.3004C39.9698 34.0692 40.1587 33.566 40.2724 33.2522C41.3366 30.3148 41.0726 26.9817 41.236 23.9149C41.3392 21.9913 41.361 20.0397 41.2316 18.1012C41.2517 18.1156 41.2669 18.1367 41.2822 18.1578C41.2889 18.1626 41.2956 18.1674 41.2975 18.1789C42.4832 20.1151 42.4249 22.4564 42.5021 24.6514C42.5406 25.7843 42.6717 27.0142 42.557 28.1487C42.4568 29.1923 42.4026 30.2283 42.314 31.27C42.183 32.8085 41.9871 34.2397 42.016 35.7815C42.0466 37.8012 42.6135 41.0374 45.0899 41.4158C46.7067 41.6638 47.5563 38.7853 47.9697 37.6726C48.9171 35.1381 48.7781 31.9557 48.6859 29.2732C48.6634 28.6689 48.6294 28.0664 48.5839 27.4659C48.7575 27.7325 48.9379 28.004 49.1048 28.2658C49.517 28.9065 49.4853 30.1513 49.6444 30.9043C49.8641 31.9544 49.4994 33.1123 49.4412 34.1961C49.3241 36.3227 49.1741 39.0037 48.3172 40.9743C47.9445 41.8324 46.9358 44.8197 48.9573 44.405C51.0296 43.9762 52.2297 41.0755 52.6751 39.0426C52.6466 40.523 52.6441 41.9815 52.5467 43.4732C52.4663 44.6729 53.0374 45.742 52.889 46.9233C52.81 47.5561 52.6176 47.8947 52.3088 48.0989C50.3361 47.3013 48.5027 46.3096 46.6719 45.046C44.9533 43.7108 43.2731 42.3221 41.6284 40.8981C41.4908 40.779 41.3532 40.6599 41.2156 40.5409C41.0292 40.3767 40.8381 40.2192 40.6518 40.055C40.0373 39.5125 39.4114 38.9718 38.8017 38.4226C36.5685 36.4341 34.2013 34.4204 32.211 32.1499C31.8987 31.7939 31.5912 31.4312 31.3 31.0599C28.4225 27.4122 25.5504 23.8699 22.9453 20.0122C21.5406 17.9289 20.1279 15.6168 18.4925 13.5301C17.3806 11.9713 16.1554 10.5138 14.8062 9.27144Z" fill="#468E02"/>
<path opacity="0.31" d="M49.4275 42.3798C48.6653 41.5487 49.7874 37.9939 49.9583 37.0213C50.6453 33.2251 50.513 30.0474 47.7123 27.0836C46.8565 26.1853 46.1128 25.6109 45.5187 26.9894C44.7753 28.7171 45.1871 32.7343 45.3081 34.5856C45.3664 35.4792 45.9807 40.5139 43.8832 39.4239C42.7604 38.8409 42.9639 35.8029 42.883 34.7714C42.7029 32.3807 42.65 30.0814 43.0167 27.6777C43.2414 26.2064 44.1629 23.6939 43.6798 22.2621C43.0893 20.4996 39.0645 18.097 38.9898 21.3086C38.9307 23.6087 38.9828 25.8668 38.8116 28.1676C38.7571 28.9498 38.7064 33.7808 37.5279 32.8233C36.7117 32.1664 36.9494 29.2644 36.8483 28.2893C36.5985 25.798 36.3703 23.0788 36.5094 20.5826C36.5954 19.0219 36.9376 16.4688 35.0904 15.6801C33.6937 15.0831 33.3869 16.4144 33.1681 17.4538C32.6227 20.0639 33.732 23.943 32.177 26.2644C30.9239 28.123 30.7412 25.6088 30.5909 24.4057C30.3737 22.6882 30.42 20.9569 30.3954 19.2255C30.3643 17.8139 30.5 13.8957 28.2147 14.0703C27.9243 15.393 29.1633 19.4869 27.2859 20.0962C26.1761 20.4556 26.1363 17.8412 25.9272 17.2144C25.3073 15.3092 23.5548 11.3233 21.3465 10.9245C20.0958 12.9775 24.2234 15.2511 23.164 17.3908C21.534 16.6668 20.5571 15.1035 19.5022 13.7479C18.537 12.5074 17.1696 11.2622 15.772 10.2285C15.452 9.89732 15.1339 9.57768 14.7995 9.26662C14.1239 8.63969 13.115 8.06751 12.2895 7.67772C12.1996 7.63345 12.0934 7.59777 11.9757 7.56397C11.7861 7.1642 12.0165 6.91385 13.2086 6.94829C14.7752 6.99798 15.9099 7.83284 17.2837 8.36279C18.6758 8.89566 20.1773 8.9088 21.669 9.0062C23.0813 9.08712 24.4818 9.31165 25.8795 9.48352C34.9752 10.5576 41.9757 18.0675 46.9806 25.1083C49.4526 28.5864 51.8849 32.2187 52.5309 36.404C52.4004 36.939 52.0287 37.372 51.1827 37.5758C51.6487 38.5087 50.6481 43.7023 49.4275 42.3798Z" fill="#A3CE24"/>
<path d="M18.3485 13.2645C18.2502 13.1331 18.1518 13.0016 18.0487 12.8769C19.7186 14.1669 21.2439 16.6613 22.4409 18.271C23.4327 19.6016 24.2849 22.0589 25.6059 23.058C25.9187 21.6194 25.0356 19.2616 24.4403 17.9014C25.5994 19.352 26.0722 21.0807 26.4999 22.8581C26.9086 24.5205 27.3562 26.3831 29.0628 27.1418C30.2195 25.9542 29.6055 23.6172 29.9949 22.1424C30.5746 24.4143 29.9856 27.6927 30.2382 28.5839C30.5943 29.8536 34.0481 32.7691 35.4023 33.1429C35.6301 32.3735 35.1939 31.3708 35.1585 30.5443C35.1193 29.6948 35.2727 28.8314 35.1646 27.9933C35.8669 29.8259 35.8631 31.4557 36.212 33.3287C36.5779 35.3051 38.1956 36.7808 39.6838 37.9708C41.564 35.7613 40.5086 32.1744 41.8512 29.7817C42.5374 31.1565 41.8129 33.3947 41.7117 34.8634C41.6093 36.4327 41.4984 37.9857 42.1431 39.5031C42.6421 40.6726 43.6689 42.1804 45.092 42.1474C46.5811 42.1212 47.975 39.8971 48.4835 38.6803C48.3998 40.4354 46.2881 42.5294 47.1524 44.3059C47.8395 45.722 49.2295 45.9187 50.5508 45.1941C51.7417 44.5381 52.1344 43.2989 52.6141 42.1222C52.5987 42.5674 52.5899 43.0175 52.5582 43.4713C52.4778 44.671 53.0489 45.7401 52.9005 46.9214C52.8214 47.5542 52.6291 47.8928 52.3203 48.097C50.9924 47.5595 49.7251 46.9235 48.4838 46.1946C45.375 43.5471 42.0368 41.1203 38.8628 38.507C36.1764 36.2034 33.473 33.7962 31.3163 31.0513C28.4388 27.4037 25.5667 23.8613 22.9616 20.0036C21.5655 17.9367 20.1296 15.6991 18.5632 13.6011C18.5127 13.4736 18.4297 13.3633 18.3485 13.2645Z" fill="#4A8209"/>
<path opacity="0.24" d="M22.8688 36.4763C23.7516 38.114 24.8205 39.6621 26.2373 41.0646C30.3214 45.1221 39.3305 49.6223 44.9868 46.1079C44.2282 44.1841 39.2252 42.7626 37.4687 41.6639C32.9803 38.8475 29.3771 34.6991 26.2174 30.4839C23.2239 26.4893 21.8186 19.4063 16.697 17.5143C14.8823 19.9433 17.2344 23.5179 18.2682 25.6798C19.9737 29.3075 21.0296 33.0772 22.8688 36.4763Z" fill="#CCEA86"/>
<path opacity="0.2" d="M36.1796 16.7055C36.0675 16.7062 35.9766 16.6916 35.8857 16.677C35.8694 16.6856 35.8579 16.6875 35.8416 16.696C35.9641 16.7231 36.0713 16.7291 36.1796 16.7055Z" fill="#CCEA86"/>
<path opacity="0.2" d="M40.9318 19.6911C40.1408 19.2956 39.275 19.3434 38.7476 18.4678C38.4147 17.9145 38.5993 17.2053 38.0392 16.7424C37.4591 16.2651 36.4505 16.3422 35.8857 16.677C35.1076 16.5037 35.1911 15.6105 34.6206 15.1198C34.1724 14.727 33.3709 14.6993 32.8757 14.3438C31.7897 13.554 31.6397 11.8137 30.5726 11.1389C29.4223 10.4247 28.1875 11.4244 27.122 11.2983C26.1704 11.1831 25.7273 10.2464 24.8104 10.0546C23.6915 9.81927 23.0973 10.8023 22.166 10.6306C20.712 10.3676 19.55 9.72611 18.0314 9.68037C17.1179 9.6533 16.3447 9.79797 15.5819 10.0413C15.3259 9.7764 15.0699 9.51149 14.7995 9.26666C14.1239 8.63973 13.115 8.06756 12.2895 7.67776C12.1996 7.6335 12.0934 7.59781 11.9757 7.56402C11.7861 7.16424 12.0165 6.91389 13.2086 6.94833C14.7752 6.99802 15.9099 7.83288 17.2837 8.36283C18.6758 8.8957 20.1773 8.90884 21.669 9.00624C23.0813 9.08716 24.4818 9.31169 25.8795 9.48356C34.9752 10.5576 41.9757 18.0675 46.9806 25.1083C47.1401 25.3241 47.288 25.5419 47.4426 25.7644C46.1718 24.1727 44.6467 22.794 43.1273 21.4497C42.4336 20.8198 41.7544 20.0991 40.9318 19.6911Z" fill="#CCEA86"/>
<path opacity="0.25" d="M24.864 37.4827C25.5133 38.2733 26.2665 38.8343 26.9543 39.5714C27.6706 40.3392 27.7971 41.5049 28.6441 42.1332C29.3352 42.6395 30.3761 42.687 31.1482 42.9675C32.236 43.3733 33.2247 44.0019 34.3259 44.4172C35.3774 44.8171 36.4155 45.2074 37.4959 45.4963C38.1008 45.6567 39.233 46.2972 39.8355 46.2632C40.3325 46.2347 40.6103 46.2009 40.6952 45.5317C40.8794 44.1733 38.9546 43.3796 38.0361 43.0346C36.3139 42.3966 34.3653 42.3565 32.8732 41.2144C31.6793 40.3066 30.8723 38.987 30.0852 37.7527C29.0052 36.0647 27.8737 34.279 26.6863 32.6559C25.5733 31.1268 24.113 30.3218 23.2294 28.5721C22.8339 27.7811 22.3888 27.2993 21.9614 26.6375C21.4795 25.8962 18.4492 18.0117 17.3846 19.1132C16.5053 20.0132 18.9475 24.3522 19.3385 25.4037C20.2092 27.7222 21.5013 30.0187 22.0721 32.416C22.5348 34.3707 23.6007 35.937 24.864 37.4827Z" fill="#CCEA86"/>
<g clip-path="url(#clip2_20_339)" filter="url(#filter0_f_20_339)">
<path d="M152.043 112.194C150.165 112.172 148.339 112.199 146.46 112.092C145.003 112.01 143.713 112.718 142.277 112.555C140.423 112.342 140.583 111.33 140.246 109.494C139.836 107.29 139.541 105.081 139.134 102.891C138.587 99.9427 138.709 96.7552 139.506 93.858C141.073 88.1546 144.335 83.1871 148.556 79.063C156.443 71.3652 168.325 66.7123 179.285 66.1633C181.718 66.0369 185.224 65.7219 187.254 64.2017C188.688 63.131 190.279 60.5825 190.221 63.802C190.182 65.7043 189.184 67.0931 188.56 68.7681C187.932 70.4652 187.937 72.2879 187.839 74.1C187.76 75.8155 187.507 77.5185 187.317 79.2175C186.139 90.2731 177.119 98.8739 168.641 105.046C163.665 108.678 158.414 112.251 152.043 112.194Z" fill="#78AF02"/>
<path opacity="0.42" d="M139.497 105.074C139.383 104.347 139.262 103.615 139.129 102.899C138.582 99.9509 138.703 96.7634 139.5 93.8662C141.067 88.1628 144.329 83.1952 148.551 79.0712C156.443 71.3652 168.325 66.7123 179.285 66.1632C181.718 66.0369 185.224 65.7219 187.254 64.2017C188.688 63.131 190.279 60.5825 190.221 63.802C190.195 65.2496 189.602 66.4093 189.053 67.6116C187.007 69.6945 184.292 70.7104 181.964 72.6204C181.011 73.4054 180.168 74.243 179.136 74.9486C178.879 75.123 175.773 76.5237 175.824 76.364C176.524 74.3024 177.912 72.9309 179.51 71.5228C180.883 70.3119 183.561 68.6349 183.946 66.7435C180.058 64.9217 176.711 70.7945 174.429 72.761C175.193 70.8174 177.086 69.5798 177.987 67.7199C176.859 68.3705 175.11 67.8165 173.798 68.399C172.461 69.0004 171.685 70.0199 171.195 71.3984C170.407 73.5689 169.754 75.6149 169.438 77.7742C169.101 80.0662 169.873 82.5367 168.32 84.5257C166.683 83.0116 168.049 78.7794 168.485 77.0085C168.73 75.9961 171.139 68.3426 171.481 68.4116C164.989 67.1339 162.332 76.5183 162.337 81.0405C162.344 82.547 162.494 84.057 162.551 85.5619C162.58 86.3394 162.097 88.9803 162.455 89.5491C159.736 85.2744 160.56 79.2207 162.204 74.7315C162.581 73.6888 163.079 72.6462 163.123 71.5903C158.344 69.5591 157.153 76.467 156.9 79.4767C156.695 81.9465 155.984 84.4767 156.135 86.9632C156.24 88.7467 157.25 90.4071 157.487 92.1604C155.874 90.1753 155.323 87.0414 155.206 84.5418C155.074 81.5425 156.578 78.4205 156.07 75.4513C153.995 74.7177 151.034 79.1874 150.322 80.6911C148.939 83.6051 149.139 87.6407 149.126 90.7948C149.124 92.5758 149.935 94.2925 150.521 95.9485C150.867 96.9359 151.058 99.9033 151.628 100.571C150.332 99.0402 149.667 96.6444 149.226 94.7116C148.944 93.476 148.682 92.2298 148.54 90.9697C148.421 89.849 148.848 88.2304 148.566 87.2029C147.783 84.3827 145.759 86.1388 145.313 88.0121C144.348 92.1593 144.345 96.0654 145.148 100.182C144.752 98.1334 143.823 96.4804 143.726 94.1783C143.638 91.882 144.449 89.7148 143.971 87.3649C141.371 87.5207 140.706 96.3967 140.55 98.2047C140.374 100.303 140.695 102.336 141.346 104.318C141.693 105.356 142.88 107.164 143.179 108.497C143.259 108.871 143.274 109.199 143.176 109.46C143.078 109.721 140.154 106.28 139.926 105.839C139.787 105.583 139.641 105.322 139.497 105.074Z" fill="#A3CE24"/>
<path opacity="0.42" d="M139.5 93.8662C141.067 88.1628 144.329 83.1952 148.551 79.0712C156.443 71.3652 168.325 66.7123 179.285 66.1632C181.718 66.0368 185.224 65.7218 187.254 64.2017C188.688 63.131 190.279 60.5824 190.221 63.802C190.189 65.6239 189.27 66.9702 188.651 68.551C187.606 69.9193 186.434 71.0516 184.722 71.647C184.594 71.6912 184.451 71.7378 184.314 71.7762C181.37 72.6314 182.06 70.4281 181.333 68.6245C180.193 65.7738 177.493 69.0344 176.545 70.6657C175.764 72.0236 175.659 74.7344 174.223 75.511C172.62 73.3735 174.569 70.5753 175.244 68.3744C170.848 67.6255 169.773 74.6998 169.948 77.8998C170.144 81.7495 168.017 79.0006 167.324 76.9398C166.875 75.6116 166.768 74.4744 166.845 73.0752C166.899 72.075 167.302 70.6112 166.992 69.7467C165.047 71.9125 163.736 74.2179 162.968 77.1961C162.557 78.7402 162.094 80.8822 162.047 82.5345C162.01 83.9985 162.706 85.6709 161.935 86.9985C160.166 86.6992 159.647 82.1956 159.577 80.7791C159.402 77.371 160.045 74.867 160.999 71.6767C159.656 71.7119 158.14 73.5437 157.43 74.6091C156.409 76.1527 156.418 78.1254 156.144 79.9112C155.815 82.0009 155.469 84.2011 155.681 86.3034C155.812 87.5798 157.293 90.6078 156.695 91.6175C154.99 90.9481 153.773 87.8236 153.156 86.2307C152.054 83.3947 152.226 79.9253 153.338 77.1021C152.197 77.1448 150.697 79.8065 150.176 80.7597C147.509 85.6801 148.715 91.3122 150.413 96.4342C150.827 97.6895 151.786 99.1434 149.689 98.4426C148.544 98.0552 147.833 96.9956 147.365 95.886C145.917 92.5509 146.93 88.7544 146.58 85.2978C145.836 86.9867 144.936 89.0547 144.79 90.9184C143.682 94.0496 145.612 97.7955 144.571 100.779C143.055 98.9344 142.688 96.723 142.851 94.3826C142.953 92.8425 144.079 90.8352 143.684 89.3251C143.29 87.779 142.413 88.0554 141.612 89.3018C140.251 91.4007 140.914 94.515 140.479 96.8602C140.285 97.921 140.586 98.3636 139.255 97.9442C139.126 97.9023 138.992 97.8326 138.869 97.7465C138.947 96.4333 139.155 95.1259 139.5 93.8662Z" fill="#A3CE24"/>
<path opacity="0.42" d="M144.873 90.6955C144.843 90.7725 144.828 90.8471 144.798 90.9241C144.8 90.974 144.782 91.0347 144.783 91.0846C144.839 90.9528 144.867 90.8258 144.873 90.6955Z" fill="#A3CE24"/>
<path d="M139.129 102.899C138.582 99.951 138.703 96.7634 139.5 93.8662C139.634 93.3617 139.812 92.8637 139.971 92.3763C139.84 92.9808 139.721 93.569 139.662 94.0892C139.34 96.7949 139.395 100.863 141.056 103.163C141.443 103.691 141.925 104.101 142.493 104.389C144.445 105.367 145.058 102.646 145.158 101.3C145.304 99.1061 144.519 96.8462 144.211 94.689C143.845 92.0755 144.292 87.6388 146.022 84.8216C144.438 89.2429 143.583 99.976 149.128 101.298C149.391 101.36 149.714 101.281 149.807 100.992C150.614 98.1507 149.404 95.5563 149.054 92.7101C148.712 89.9917 149.45 82.266 150.002 81.0776C149.541 85.2726 150.02 90.4078 151.93 93.7981C153.084 95.828 155.568 94.3573 156.168 92.6651C157.008 90.3349 155.742 87.7503 155.857 85.3033C155.978 82.518 156.23 79.7884 156.784 77.0632C156.923 76.3423 157.211 75.6527 157.466 74.9401C157.944 73.6141 158.602 72.2922 159.937 71.6769C158.158 73.6052 157.895 76.315 157.674 78.7734C157.442 81.4563 157.202 84.1334 158.697 86.5485C159.21 87.3845 160.721 89.9331 162.051 89.0459C163.215 88.274 162.738 84.7895 162.652 83.6057C162.44 81.0152 162.815 78.7379 163.232 76.2092C163.604 73.9541 164.348 72.2652 165.968 70.5802C164.332 73.5244 163.944 76.8666 164.238 80.1749C164.379 81.7511 165.377 85.2589 167.711 83.793C169.659 82.5816 169.031 79.2961 169.016 77.4176C168.973 74.6036 170.573 71.5725 171.882 69.1811C171.649 70.7514 170.91 72.224 170.892 73.8354C170.889 74.6759 170.857 76.4119 171.299 77.088C172.287 78.5869 172.783 76.8341 173.109 75.9511C174.025 73.4424 175.249 71.504 176.936 69.4626C178.309 67.7995 179.945 66.8944 181.977 66.2427C179.75 67.0508 178.731 68.8885 177.514 70.7467C176.622 72.1241 175.263 73.8707 176.249 75.5999C176.468 75.985 176.899 76.0672 176.995 76.4523C177.173 77.1389 176.572 77.7186 176.216 78.2263C175.883 78.7013 175.749 79.2058 175.455 79.6956C174.702 80.9264 173.161 80.86 172.017 81.4992C170.777 82.2054 169.818 83.3649 168.807 84.354C167.538 85.5894 166.253 86.8134 164.982 88.035C162.482 90.4347 159.951 92.8254 157.454 95.2391C154.1 98.4567 150.697 101.604 147.173 104.629C144.684 106.768 143.3 108.289 142.391 111.364C142.304 111.645 142.197 112.059 142.05 112.53C140.481 112.26 140.585 111.258 140.265 109.52C139.831 107.299 139.536 105.089 139.129 102.899Z" fill="#6D9E02"/>
<path d="M145.103 104.045C146.551 102.031 148.269 100.207 149.867 98.3108C153.39 94.1372 156.97 89.5877 161.239 86.1445C165.627 82.6014 169.888 79.0664 174.535 75.8512C178.888 72.8455 183.891 69.6968 187.431 65.7788C188.183 64.9502 188.863 63.7177 189.325 62.7103C189.378 62.6005 189.42 62.4711 189.459 62.3278C189.942 62.0921 190.249 62.3684 190.223 63.8159C190.184 65.7182 189.187 67.107 188.562 68.782C187.935 70.4791 187.939 72.3019 187.842 74.1139C187.763 75.8294 187.509 77.5324 187.32 79.2314C186.141 90.2871 177.121 98.8878 168.644 105.06C163.66 108.686 158.408 112.259 152.043 112.194C150.165 112.172 148.339 112.199 146.461 112.092C145.003 112.01 143.713 112.718 142.277 112.554C141.508 112.467 141.094 112.238 140.842 111.866C141.905 109.131 143.262 106.602 145.103 104.045Z" fill="#61A304"/>
<path opacity="0.6" d="M187.429 65.765C188.18 64.9363 188.861 63.7038 189.323 62.6964C189.375 62.5866 189.417 62.4572 189.457 62.3139C189.939 62.0782 190.246 62.3545 190.221 63.8021C190.223 63.938 190.203 64.0708 190.189 64.1953C190.102 64.1461 190.003 64.1132 189.889 64.1189C189.319 64.1472 188.76 65.1718 188.467 65.5894C187.971 66.2797 187.37 66.7373 186.731 67.2662C184.484 69.1475 182.061 70.7583 179.808 72.6478C178.631 73.6302 174.056 75.9066 173.904 77.5344C173.776 79.0073 175.479 78.2841 176.597 77.9439C177.885 77.5522 178.584 76.8334 179.73 76.2442C180.962 75.6182 182.319 75.2503 183.464 74.4531C184.832 73.4945 185.844 72.4334 187.044 71.3322C186.338 73.2799 183.484 74.7726 181.8 75.8513C179.426 77.3746 177.028 78.5143 174.333 79.2394C172.142 79.8403 170.306 80.2636 168.613 81.8609C168.329 82.1262 167.584 82.5444 167.832 82.9746C168.179 83.5598 169.486 83.1935 170.037 83.2618C171.151 83.4321 172.166 83.6915 173.327 83.7241C175.362 83.7827 177.441 83.5176 179.473 83.4402C181.234 83.3675 183.246 82.8484 184.782 81.9465C181.202 84.0409 177.7 85.1161 173.504 84.813C172.159 84.7123 170.754 84.8516 169.418 84.6845C168.052 84.5084 166.654 84.3593 165.366 84.9951C164.165 85.594 163.096 86.701 162.07 87.6065C160.652 88.8468 161.257 89.4296 162.873 89.8418C165.633 90.5553 168.446 90.2186 171.189 90.7126C173.695 91.1622 176.556 90.2856 179.054 89.9971C181.09 89.7754 182.849 89.1645 184.461 88.3282C184.429 88.3912 184.397 88.4543 184.365 88.5173C184.328 88.5886 184.29 88.6598 184.238 88.7335C181.056 91.4614 176.57 91.7119 172.442 92.2871C171.998 92.2934 171.546 92.2939 171.094 92.2945C168.357 92.2445 165.577 92.152 162.835 92.3183C160.923 92.4319 158.909 92.2046 157.708 93.9882C157.265 94.6548 156.783 95.6729 157.389 96.3417C157.673 96.6507 158.287 96.8731 158.669 97.0068C162.249 98.2583 166.292 97.892 170.017 98.0481C172.353 98.147 174.722 98.1467 177.074 97.9629C177.056 97.9875 177.031 98.0063 177.006 98.0252C177 98.0334 176.994 98.0415 176.98 98.044C174.646 99.5099 171.803 99.4714 169.14 99.5952C167.765 99.6574 166.274 99.8335 164.896 99.7098C163.627 99.6026 162.369 99.5511 161.103 99.4578C159.234 99.3199 157.494 99.1018 155.623 99.158C153.172 99.223 149.251 99.9555 148.826 102.967C148.547 104.933 152.053 105.924 153.409 106.411C156.499 107.526 160.36 107.314 163.615 107.165C164.348 107.129 165.079 107.08 165.807 107.016C165.486 107.231 165.159 107.453 164.843 107.66C164.071 108.169 162.56 108.147 161.648 108.351C160.376 108.632 158.966 108.205 157.649 108.149C155.066 108.037 151.81 107.891 149.406 106.878C148.359 106.438 144.72 105.254 145.251 107.702C145.8 110.212 149.337 111.629 151.811 112.141C150.013 112.127 148.243 112.144 146.431 112.047C144.974 111.965 143.684 112.673 142.248 112.509C141.479 112.422 141.065 112.193 140.813 111.821C141.754 109.416 142.932 107.177 144.441 104.937C146.038 102.832 147.701 100.774 149.407 98.7579C149.549 98.5892 149.692 98.4205 149.835 98.2519C150.032 98.0234 150.22 97.7892 150.417 97.5608C151.067 96.8075 151.715 96.0402 152.373 95.2926C154.756 92.5545 157.168 89.6534 159.896 87.2063C160.324 86.8223 160.76 86.4441 161.207 86.0855C165.595 82.5424 169.856 79.0075 174.503 75.7922C177.012 74.0585 179.799 72.3119 182.31 70.2981C184.187 68.9269 185.939 67.4198 187.429 65.765Z" fill="#468E02"/>
<path opacity="0.31" d="M147.715 108.245C148.714 107.309 153.044 108.622 154.227 108.816C158.845 109.598 162.7 109.394 166.259 105.953C167.338 104.902 168.025 103.991 166.343 103.289C164.236 102.41 159.365 102.966 157.12 103.138C156.036 103.221 149.933 104.036 151.227 101.475C151.919 100.104 155.61 100.309 156.861 100.197C159.76 99.9453 162.551 99.8494 165.474 100.262C167.263 100.514 170.325 101.598 172.056 100.992C174.188 100.251 177.049 95.3324 173.149 95.2859C170.357 95.2458 167.616 95.34 164.821 95.1639C163.871 95.1084 158.006 95.1132 159.152 93.6696C159.938 92.6698 163.464 92.9184 164.646 92.7823C167.667 92.4449 170.965 92.1306 173.997 92.265C175.892 92.3481 178.996 92.7284 179.928 90.4752C180.634 88.7716 179.013 88.4176 177.749 88.1662C174.573 87.5401 169.879 88.9398 167.04 87.0843C164.767 85.5887 167.816 85.3324 169.275 85.1333C171.356 84.8462 173.459 84.8785 175.56 84.8249C177.273 84.7677 182.031 84.8786 181.788 82.107C180.178 81.7726 175.226 83.3329 174.46 81.0623C174.009 79.7202 177.182 79.636 177.94 79.3734C180.244 78.5949 185.058 76.4128 185.512 73.7268C183.003 72.2368 180.299 77.2784 177.688 76.0218C178.544 74.0332 180.428 72.826 182.059 71.5268C183.552 70.3381 185.045 68.6612 186.28 66.9505C186.678 66.5575 187.061 66.167 187.434 65.7568C188.186 64.9282 188.867 63.6956 189.328 62.6882C189.381 62.5785 189.423 62.4491 189.462 62.3057C189.945 62.0701 190.252 62.3463 190.227 63.7939C190.188 65.6961 189.19 67.085 188.566 68.7599C187.938 70.457 187.943 72.2798 187.845 74.0919C187.766 75.8073 187.513 77.5103 187.323 79.2093C186.144 90.265 177.125 98.8658 168.647 105.038C164.459 108.086 160.083 111.089 155.012 111.93C154.361 111.779 153.83 111.334 153.571 110.31C152.445 110.888 146.127 109.745 147.715 108.245Z" fill="#A3CE24"/>
<path d="M182.63 70.1196C182.788 69.9985 182.947 69.8773 183.097 69.7504C181.554 71.7951 178.547 73.6809 176.609 75.156C175.008 76.3782 172.037 77.4464 170.842 79.0637C172.592 79.4235 175.442 78.3192 177.085 77.578C175.34 79.0049 173.249 79.6025 171.097 80.146C169.085 80.6651 166.83 81.234 165.932 83.3159C167.39 84.7037 170.218 83.9263 172.014 84.3787C169.264 85.1136 165.276 84.4436 164.198 84.7625C162.662 85.2122 159.17 89.4448 158.735 91.0936C159.672 91.3596 160.883 90.8163 161.886 90.762C162.917 90.7028 163.967 90.8771 164.983 90.7343C162.768 91.6121 160.789 91.6298 158.521 92.079C156.126 92.5503 154.357 94.5343 152.933 96.3571C155.641 98.6091 159.981 97.2787 162.904 98.8755C161.244 99.7273 158.517 98.8787 156.733 98.776C154.827 98.6733 152.94 98.56 151.107 99.3634C149.694 99.9852 147.878 101.252 147.938 102.979C147.99 104.787 150.709 106.448 152.193 107.048C150.062 106.971 147.491 104.436 145.346 105.51C143.637 106.364 143.417 108.053 144.315 109.647C145.127 111.084 146.637 111.544 148.072 112.11C147.531 112.097 146.985 112.093 146.433 112.06C144.976 111.979 143.686 112.687 142.25 112.523C141.481 112.436 141.067 112.207 140.815 111.835C141.45 110.216 142.204 108.669 143.072 107.152C146.243 103.342 149.143 99.2566 152.271 95.3679C155.031 92.0754 157.915 88.7608 161.218 86.1051C165.606 82.562 169.866 79.0271 174.513 75.8118C177.003 74.0888 179.699 72.3151 182.225 70.3848C182.379 70.3218 182.511 70.2195 182.63 70.1196Z" fill="#4A8209"/>
<path opacity="0.24" d="M154.516 75.9255C152.541 77.0197 150.676 78.3384 148.993 80.0774C144.124 85.0908 138.785 96.0883 143.129 102.906C145.454 101.959 147.11 95.8662 148.42 93.719C151.777 88.2321 156.763 83.8013 161.836 79.908C166.644 76.2193 175.223 74.4162 177.449 68.1733C174.475 66.0039 170.169 68.9081 167.559 70.1927C163.179 72.3128 158.617 73.6463 154.516 75.9255Z" fill="#CCEA86"/>
<path opacity="0.2" d="M178.698 91.8114C178.696 91.6755 178.712 91.5649 178.729 91.4543C178.718 91.4346 178.716 91.4207 178.705 91.401C178.674 91.5501 178.668 91.6804 178.698 91.8114Z" fill="#CCEA86"/>
<path opacity="0.2" d="M175.14 97.621C175.609 96.6554 175.539 95.6051 176.594 94.9528C177.262 94.5411 178.125 94.7554 178.679 94.0692C179.25 93.3585 179.143 92.1353 178.729 91.4543C178.929 90.5074 180.014 90.5965 180.602 89.8972C181.072 89.3478 181.095 88.3745 181.52 87.7685C182.463 86.4395 184.574 86.2334 185.378 84.9289C186.229 83.5227 184.999 82.0376 185.137 80.7425C185.264 79.5858 186.395 79.0351 186.615 77.9194C186.886 76.558 185.684 75.8503 185.88 74.7174C186.179 72.9489 186.942 71.5296 186.976 69.6855C186.997 68.5763 186.811 67.6398 186.505 66.7172C186.823 66.4028 187.141 66.0884 187.434 65.7568C188.186 64.9281 188.867 63.6956 189.328 62.6882C189.381 62.5785 189.423 62.449 189.462 62.3057C189.945 62.07 190.252 62.3463 190.227 63.7939C190.188 65.6961 189.19 67.0849 188.566 68.7599C187.938 70.457 187.942 72.2798 187.845 74.0919C187.766 75.8073 187.513 77.5103 187.323 79.2093C186.144 90.265 177.125 98.8658 168.647 105.038C168.387 105.234 168.125 105.417 167.857 105.608C169.771 104.043 171.424 102.173 173.035 100.31C173.79 99.4594 174.656 98.6251 175.14 97.621Z" fill="#CCEA86"/>
<path opacity="0.25" d="M153.322 78.3613C152.372 79.1603 151.701 80.0824 150.816 80.9273C149.893 81.8075 148.48 81.9771 147.729 83.0138C147.124 83.8597 147.081 85.1237 146.751 86.0648C146.273 87.3909 145.524 88.5996 145.035 89.9421C144.564 91.2239 144.104 92.4893 143.768 93.8048C143.582 94.5412 142.82 95.9245 142.87 96.6552C142.911 97.2582 142.956 97.595 143.77 97.6888C145.421 97.8938 146.358 95.5464 146.764 94.4267C147.515 92.3275 147.537 89.9616 148.903 88.1346C149.988 86.6729 151.579 85.6752 153.066 84.7028C155.1 83.3687 157.253 81.9707 159.206 80.507C161.047 79.1351 162.004 77.3513 164.116 76.2548C165.071 75.7638 165.65 75.2169 166.447 74.689C167.34 74.0939 176.869 70.3072 175.517 69.0301C174.413 67.9751 169.18 70.9991 167.909 71.4882C165.106 72.577 162.336 74.177 159.434 74.9028C157.068 75.4913 155.181 76.8067 153.322 78.3613Z" fill="#CCEA86"/>
</g>
<defs>
<filter id="filter0_f_20_339" x="126" y="44.0001" width="76.7069" height="84.8445" filterUnits="userSpaceOnUse" color-interpolation-filters="sRGB">
<feFlood flood-opacity="0" result="BackgroundImageFix"/>
<feBlend mode="normal" in="SourceGraphic" in2="BackgroundImageFix" result="shape"/>
<feGaussianBlur stdDeviation="2" result="effect1_foregroundBlur_20_339"/>
</filter>
<clipPath id="clip0_20_339">
<rect width="53" height="44" fill="white" transform="translate(25 65)"/>
</clipPath>
<clipPath id="clip1_20_339">
<rect width="30.18" height="23.44" fill="white" transform="translate(91 42)"/>
</clipPath>
<clipPath id="clip2_20_339">
<rect width="68.86" height="35.64" fill="white" transform="translate(130 104.389) rotate(-54.9747)"/>
</clipPath>
</defs>
</svg>
