<svg width="187" height="104" viewBox="0 0 187 104" fill="none" xmlns="http://www.w3.org/2000/svg">
<g clip-path="url(#clip0_20_340)" filter="url(#filter0_f_20_340)">
<path d="M51.5055 84.022C49.7867 85.2255 47.8751 86.0335 46.0969 85.6976C44.3902 85.3877 42.8602 83.9633 41.6662 82.8374C39.2137 80.4672 37.859 79.0795 36.1828 76.206C34.8658 73.9377 33.3604 71.6685 32.6492 69.1058C32.0196 66.9116 32.3572 64.5411 31.2703 62.4921C29.9095 59.9368 29.9819 59.5159 32.7876 58.8438C41.6055 56.6888 47.0583 57.0754 55.0505 61.6663C58.713 63.786 61.1561 65.5159 60.3281 69.8624C59.6709 73.2954 57.8412 77.2094 55.7207 79.9604C54.6849 81.25 53.2036 82.8381 51.5055 84.022Z" fill="#FFC40C"/>
<path d="M48.7354 76.712C50.4092 75.2618 51.9052 73.4487 52.4236 72.0249C53.5977 68.875 48.7888 66.2022 46.4214 65.4485C43.1723 64.4144 39.6675 63.4903 36.3376 62.752C37.7763 62.3545 39.2655 62.1515 40.7738 62.118C44.0275 62.0291 47.3163 62.2511 50.4395 62.9277C53.8257 63.6595 58.0678 64.5946 58.3994 68.9026C58.6222 71.9921 57.3888 74.5648 56.1788 77.2951C54.97 79.9852 51.6697 82.0898 48.92 82.9043C48.2363 83.1161 47.4796 83.0844 46.6744 82.9267C42.5382 82.0709 40.9642 78.9907 39.3435 75.4464C38.8016 74.2327 38.4797 72.8959 37.8034 71.7552C37.0817 70.5167 35.8206 68.9463 34.9437 67.3938C36.8215 68.7145 38.4111 71.1228 39.7616 72.9291C40.8767 74.4193 41.9939 75.978 43.4552 77.147C45.4957 78.798 46.8079 78.3408 48.7354 76.712Z" fill="#FFFA50"/>
<path d="M35.0711 67.5621C34.0128 66.323 32.6887 64.296 33.7566 63.14C34.7496 62.0788 37.5359 62.3482 38.7687 62.5532C40.6757 62.8682 42.5119 63.4149 44.3754 63.8496C45.8925 64.1989 47.2232 64.2092 48.5986 65.0217C51.1959 66.5503 53.3291 67.9098 52.5826 71.107C51.6426 75.1688 45.6919 81.146 41.4258 77.3158C39.9022 75.9479 39.8149 74.2629 39.0098 72.5875C38.2317 70.949 36.9853 69.5601 35.7191 68.2995C35.5485 68.1018 35.3151 67.8542 35.0711 67.5621Z" fill="#FFE62E"/>
<path d="M46.0969 85.6976C44.3902 85.3877 42.8602 83.9633 41.6662 82.8374C39.2137 80.4672 37.859 79.0795 36.1828 76.206C34.8658 73.9377 33.3604 71.6685 32.6492 69.1058C32.3473 68.0473 32.2675 66.9341 32.1432 65.8319C32.314 66.4361 32.4892 67.0284 32.7544 67.5586C33.679 69.535 34.5926 71.6158 35.9129 73.3569C35.9324 73.3775 35.9518 73.3981 35.9594 73.4144C37.9207 77.0964 40.8276 80.6619 43.7882 81.4149C48.7746 82.6751 54.1331 79.1383 56.1905 74.562C59.1596 68.0004 54.8927 63.506 48.656 61.682C43.2503 60.0928 36.0994 58.4102 30.5808 60.4251C30.5126 60.4274 30.4725 60.4264 30.4162 60.433C30.3282 59.6014 30.9991 59.2766 32.7876 58.8438C41.6055 56.6888 47.0583 57.0754 55.0505 61.6663C58.713 63.786 61.1561 65.5159 60.3281 69.8624C59.6709 73.2954 57.8412 77.2094 55.7207 79.9604C54.7087 81.2587 53.2155 82.8424 51.5293 84.0306C49.7748 85.2211 47.8751 86.0335 46.0969 85.6976Z" fill="#EF9818"/>
<path d="M52.5903 77.4518C51.3651 78.7808 49.8136 79.7471 47.9974 80.4408C46.1726 81.1585 44.9278 80.5425 46.9876 79.3277C50.3288 77.3329 52.0702 76.1783 53.3106 72.4021C53.6516 71.4286 53.7554 68.5529 54.581 68.2844C56.2212 69.7761 55.2748 72.8192 54.5078 74.5184C54.0018 75.6486 53.3641 76.6224 52.5903 77.4518Z" fill="white"/>
<path d="M35.2337 65.006C35.1791 65.23 35.1483 65.4627 35.163 65.6443C35.2224 66.2215 35.653 66.8526 35.9844 67.312C36.2888 67.7346 36.7471 68.1047 36.8076 68.6417C36.2119 68.7229 35.3527 67.5292 35.044 67.1186C34.6078 66.5397 34.1772 65.9086 33.9492 65.2022C33.7761 64.6784 33.7361 64.1218 34.0349 63.6344C34.3207 63.1829 34.7913 62.8529 35.2179 63.347C35.583 63.751 35.3552 64.4133 35.2337 65.006Z" fill="white"/>
</g>
<g clip-path="url(#clip1_20_340)" filter="url(#filter1_f_20_340)">
<path d="M192.161 134.234C190.718 138.026 189.412 141.749 187.794 145.478C186.543 148.373 187.017 151.517 185.615 154.307C183.802 157.908 181.869 156.831 177.894 156.146C173.12 155.334 168.419 154.286 163.674 153.478C157.288 152.391 150.914 149.769 145.632 145.993C135.234 138.565 127.59 128.247 122.373 116.613C112.639 94.8822 112.058 67.3168 119.112 44.6804C120.67 39.6517 122.643 32.3073 121.073 27.0573C119.971 23.3505 115.988 18.225 122.474 20.7429C126.303 22.2392 128.376 25.2978 131.307 27.8124C134.281 30.3502 137.981 31.6992 141.583 33.2478C145.004 34.6861 148.269 36.4691 151.573 38.1194C173.116 48.7492 183.836 73.4515 190.035 95.2444C193.693 108.042 197.025 121.355 192.161 134.234Z" fill="#78AF02"/>
<path opacity="0.42" d="M168.371 154.37C166.813 154.059 165.237 153.759 163.685 153.496C157.299 152.408 150.925 149.787 145.644 146.011C135.245 138.582 127.602 128.265 122.384 116.63C112.638 94.8818 112.057 67.3164 119.111 44.68C120.668 39.6512 122.642 32.3068 121.072 27.0568C119.97 23.3501 115.987 18.2246 122.473 20.7424C125.389 21.8728 127.299 23.9396 129.328 25.9502C132.028 31.6519 132.065 37.9146 134.203 44.0586C135.085 46.5769 136.155 48.9117 136.817 51.5301C136.98 52.1803 137.505 59.5243 137.219 59.3021C133.56 56.346 131.813 52.5079 130.148 48.2187C128.716 44.5303 127.311 37.8506 123.762 35.6596C117.169 42.1882 126.585 53.3521 128.873 59.4454C125.5 56.4478 124.401 51.6862 121.3 48.4736C121.78 51.2454 119.353 54.379 119.556 57.4737C119.779 60.6341 121.269 62.9668 123.699 64.9876C127.514 68.2044 131.177 71.0524 135.32 73.3039C139.718 75.6943 145.303 75.9699 148.179 80.6013C143.888 82.794 136.324 76.8687 133.057 74.6662C131.187 73.4137 117.46 62.8246 117.855 62.1816C110.426 74.3964 127.477 86.7793 136.652 90.1382C139.712 91.2478 142.887 92.0675 145.981 93.0746C147.58 93.5951 152.575 96.5433 153.996 96.2401C143.3 98.5686 131.637 92.3868 123.758 85.7064C121.924 84.1655 120.182 82.3771 118.073 81.5008C110.391 89.6808 123.514 97.2428 129.429 99.9994C134.285 102.255 138.887 105.582 144.041 107.131C147.737 108.246 151.857 107.436 155.589 108.262C150.361 110.054 143.595 108.836 138.439 107.209C132.257 105.243 127.047 99.8657 120.647 98.6828C117.613 102.344 124.47 111.681 126.989 114.245C131.868 119.222 140.202 121.824 146.589 124.2C150.199 125.532 154.285 125.166 158.08 125.212C160.34 125.246 166.501 127.069 168.28 126.412C164.209 127.899 158.855 127.463 154.607 126.916C151.891 126.567 149.168 126.17 146.506 125.52C144.145 124.924 141.18 122.854 138.887 122.658C132.584 122.145 134.636 127.559 138.103 129.86C145.795 134.908 153.715 137.823 162.661 139.263C158.212 138.54 154.167 139.193 149.426 137.672C144.704 136.139 140.913 132.88 135.791 132.098C134.169 137.488 151.674 145.451 155.225 147.114C159.35 149.036 163.712 149.899 168.216 150.058C170.579 150.126 175.131 149.067 178.058 149.454C178.875 149.57 179.551 149.785 180.008 150.177C180.465 150.57 171.306 153.936 170.241 154.07C169.62 154.16 168.98 154.262 168.371 154.37Z" fill="#A3CE24"/>
<path opacity="0.42" d="M145.644 146.011C135.245 138.582 127.601 128.265 122.384 116.63C112.638 94.8817 112.057 67.3163 119.111 44.6799C120.668 39.6511 122.642 32.3067 121.072 27.0567C119.97 23.35 115.987 18.2245 122.473 20.7423C126.144 22.1638 128.189 25.0312 130.934 27.4655C132.93 30.6035 134.353 33.8245 134.285 37.7397C134.279 38.0335 134.267 38.3574 134.243 38.6635C133.783 45.2714 129.829 42.2311 125.63 42.3602C118.998 42.5483 123.598 50.4549 126.2 53.5932C128.372 56.1884 133.792 58.4212 134.297 61.9117C128.767 63.571 124.544 57.5331 120.584 54.5229C115.789 62.8808 129.335 70.3328 135.955 72.3625C143.908 74.834 136.748 77.1001 132.052 76.9691C129.024 76.8898 126.638 76.2586 123.858 75.0597C121.87 74.2051 119.202 72.2967 117.217 72.2811C120.16 77.8403 123.859 82.2161 129.326 85.9943C132.151 87.9775 136.15 90.5134 139.466 91.8398C142.408 93.0057 146.318 92.8402 148.435 95.3945C146.51 98.7582 136.99 96.4548 134.065 95.5404C127.023 93.357 122.424 90.1853 116.665 85.8733C115.735 88.6244 118.32 93.0637 119.952 95.2977C122.322 98.5184 126.329 99.9694 129.746 101.857C133.739 104.082 137.944 106.422 142.365 107.559C145.052 108.244 152.295 107.499 153.898 109.464C151.27 112.422 144.026 112.562 140.335 112.627C133.763 112.748 126.855 109.813 121.958 105.454C121.194 107.8 125.475 112.824 127.02 114.592C135.011 123.668 147.331 125.42 158.984 125.794C161.839 125.889 165.502 125.027 162.518 128.759C160.879 130.792 158.2 131.443 155.602 131.565C147.759 132.017 140.814 127.134 133.543 125.267C136.414 128.034 139.937 131.401 143.608 133.086C149.132 137.666 158.167 136.544 163.441 140.878C158.571 142.578 153.813 141.675 149.188 139.601C146.141 138.245 142.909 134.466 139.552 134.141C136.123 133.788 136.03 135.774 137.961 138.325C141.203 142.65 148.013 143.627 152.445 146.257C154.452 147.441 155.573 147.161 153.731 149.546C153.55 149.778 153.309 149.998 153.042 150.183C150.437 149.047 147.941 147.65 145.644 146.011Z" fill="#A3CE24"/>
<path d="M163.685 153.496C157.299 152.408 150.925 149.786 145.644 146.011C144.72 145.363 143.843 144.631 142.973 143.946C144.101 144.662 145.205 145.342 146.216 145.85C151.464 148.517 159.756 151.438 165.657 149.783C167.016 149.391 168.208 148.721 169.215 147.785C172.653 144.554 167.591 141.283 164.936 140.076C160.596 138.146 155.427 138.054 150.823 137.07C145.25 135.865 136.586 131.651 132.162 126.043C139.947 132.551 161.077 142.284 167.891 132.023C168.212 131.537 168.294 130.823 167.776 130.419C162.615 126.665 156.452 127.186 150.419 125.774C144.651 124.441 129.533 117.187 127.535 115.182C135.698 119.244 146.47 122.098 154.769 120.751C159.746 119.924 158.615 113.79 155.63 111.312C151.53 107.873 145.345 108.514 140.468 106.457C134.909 104.137 129.561 101.591 124.448 98.4354C123.089 97.6165 121.905 96.5186 120.65 95.47C118.317 93.5132 116.127 91.1941 115.874 88.0283C118.458 93.073 123.758 95.6257 128.579 97.906C133.847 100.375 139.098 102.857 145.11 101.626C147.187 101.208 153.482 100.044 152.674 96.6851C151.976 93.7498 144.554 92.1191 142.089 91.4115C136.678 89.9098 132.339 87.4524 127.521 84.7225C123.225 82.2882 120.354 79.5207 118.145 74.9783C122.896 80.4905 129.385 83.7695 136.314 85.6374C139.615 86.5266 147.472 87.118 146.239 81.292C145.234 76.4386 138.103 75.2638 134.283 73.8932C128.544 71.8824 123.589 66.3801 119.715 61.9418C122.725 63.5858 125.161 66.1819 128.416 67.4196C130.118 68.052 133.615 69.4109 135.315 69.0184C139.092 68.1303 135.907 65.8184 134.359 64.4998C129.953 60.773 126.935 56.8455 124.052 51.9026C121.703 47.8783 121.086 43.8865 121.279 39.2797C121.258 44.3986 124.225 47.8356 127.087 51.6881C129.215 54.5239 131.745 58.5806 135.987 57.8693C136.931 57.7132 137.418 56.9006 138.271 56.9921C139.797 57.1424 140.524 58.7945 141.288 59.8946C142.003 60.9237 142.927 61.5711 143.701 62.5331C145.636 64.9771 144.353 68.0526 144.796 70.849C145.305 73.89 146.941 76.6993 148.194 79.4861C149.754 82.9802 151.278 86.499 152.808 89.9877C155.812 96.8462 158.774 103.76 161.808 110.624C165.834 119.824 169.68 129.07 173.189 138.472C175.672 145.113 177.726 149.053 183.285 153.189C183.789 153.575 184.549 154.099 185.394 154.748C183.678 157.73 181.724 156.773 177.959 156.127C173.131 155.351 168.43 154.303 163.685 153.496Z" fill="#6D9E02"/>
<path d="M170.462 142.235C167.457 137.797 165.038 132.953 162.383 128.3C156.545 118.044 149.986 107.394 146.185 96.1693C142.27 84.6294 138.276 73.3546 135.218 61.5344C132.367 50.4653 129.71 37.972 124.403 27.8735C123.282 25.7314 121.29 23.4324 119.591 21.7451C119.408 21.5569 119.176 21.3755 118.915 21.1888C118.797 20.0343 119.586 19.6175 122.503 20.7478C126.332 22.2442 128.405 25.3028 131.336 27.8174C134.31 30.3552 138.01 31.7041 141.612 33.2528C145.032 34.6911 148.297 36.474 151.602 38.1243C173.145 48.7542 183.865 73.4565 190.064 95.2493C193.704 108.059 197.036 121.373 192.16 134.233C190.717 138.025 189.411 141.748 187.792 145.478C186.542 148.373 187.016 151.516 185.614 154.307C184.863 155.801 184.091 156.47 183.149 156.704C178.392 152.51 174.275 147.873 170.462 142.235Z" fill="#61A304"/>
<path opacity="0.6" d="M124.372 27.868C123.252 25.726 121.26 23.427 119.561 21.7396C119.378 21.5514 119.146 21.3701 118.885 21.1833C118.767 20.0288 119.556 19.612 122.473 20.7424C122.75 20.8389 123.005 20.9778 123.247 21.099C123.082 21.2401 122.941 21.4166 122.868 21.6518C122.501 22.8276 124.162 24.7254 124.791 25.6303C125.821 27.1508 126.301 28.7118 126.897 30.4025C129.038 36.3607 130.499 42.4759 132.652 48.4519C133.767 51.571 134.974 62.546 138.162 64.0667C141.053 65.4253 140.856 61.4314 140.999 58.9113C141.165 56.0072 140.228 54.0534 139.887 51.2909C139.536 48.3249 139.801 45.2989 139.038 42.3828C138.113 38.8944 136.716 36.0505 135.376 32.7979C138.8 35.6806 139.701 42.5798 140.633 46.7993C141.953 52.7494 142.477 58.4632 141.94 64.4672C141.525 69.36 141.016 73.3975 142.993 78.0223C143.32 78.7952 143.613 80.6176 144.67 80.4353C146.115 80.1677 146.346 77.2443 146.895 76.1788C148.071 74.0463 149.353 72.1815 150.285 69.85C151.92 65.7667 152.932 61.3538 154.29 57.174C155.454 53.5493 155.901 49.0814 155.217 45.2947C156.796 54.1168 156.367 62.0186 152.625 70.3022C151.418 72.9567 150.654 75.9084 149.319 78.4934C147.944 81.1333 146.6 83.8563 146.929 86.9427C147.249 89.8254 148.697 92.8182 149.769 95.5725C151.227 99.3743 152.86 98.5815 154.901 95.6112C158.405 90.5448 159.818 84.5898 162.864 79.3944C165.644 74.6477 165.998 68.1917 167.275 62.9106C168.343 58.6166 168.415 54.5934 167.92 50.7012C168.024 50.813 168.128 50.9249 168.232 51.0368C168.348 51.1664 168.465 51.296 168.576 51.4557C171.737 59.9415 168.901 69.2265 166.992 78.026C166.673 78.9312 166.337 79.8487 166.002 80.7663C163.861 86.2798 161.601 91.8496 159.895 97.5346C158.7 101.495 156.738 105.411 159.46 109.177C160.482 110.571 162.188 112.306 163.996 111.576C164.834 111.23 165.742 110.152 166.299 109.476C171.505 103.148 173.774 94.6771 176.867 87.2391C178.809 82.5745 180.574 77.7695 181.954 72.864C181.991 72.9173 182.01 72.9828 182.029 73.0484C182.042 73.0661 182.054 73.0839 182.048 73.1139C183.282 78.9399 181.085 84.6763 179.351 90.17C178.453 93.0043 177.699 96.1596 176.421 98.8634C175.258 101.355 174.216 103.869 173.083 106.366C171.41 110.054 169.671 113.42 168.391 117.257C166.696 122.277 165.26 130.773 171.05 133.88C174.829 135.911 179.453 129.54 181.451 127.152C186.015 121.717 188.461 113.729 190.585 107.017C191.06 105.503 191.504 103.984 191.918 102.46C192.113 103.271 192.321 104.1 192.504 104.894C192.961 106.839 191.792 109.888 191.525 111.889C191.147 114.678 189.23 117.22 188.136 119.848C185.982 125.003 183.261 131.498 179.415 135.618C177.741 137.413 172.628 143.913 177.989 144.66C183.488 145.417 188.998 139.299 191.881 134.664C190.513 138.299 189.228 141.902 187.679 145.504C186.428 148.399 186.903 151.543 185.5 154.333C184.75 155.828 183.978 156.496 183.035 156.73C178.858 153.029 175.195 148.97 171.778 144.241C168.7 139.434 165.764 134.528 162.947 129.565C162.711 129.15 162.475 128.735 162.24 128.32C161.923 127.751 161.589 127.194 161.272 126.625C160.229 124.745 159.155 122.86 158.13 120.968C154.353 114.094 150.267 107.041 147.337 99.6832C146.878 98.5294 146.436 97.3631 146.041 96.19C142.126 84.6501 138.132 73.3753 135.075 61.5551C133.429 55.1737 131.964 48.2195 129.751 41.6273C128.369 36.7992 126.618 32.122 124.372 27.868Z" fill="#468E02"/>
<path opacity="0.31" d="M180.927 140.066C179.772 137.344 185.662 129.54 186.937 127.286C191.964 118.504 194.423 110.533 190.099 100.751C188.771 97.7797 187.436 95.7077 184.759 98.5944C181.406 102.213 178.902 112.505 177.578 117.188C176.938 119.448 174.043 132.432 169.813 127.898C167.549 125.473 170.716 118.141 171.42 115.52C173.071 109.453 174.956 103.723 177.97 98.1023C179.816 94.6622 184.296 89.2593 184.358 85.2963C184.443 80.4219 176.6 70.9537 173.6 78.8274C171.437 84.4612 169.586 90.089 167.146 95.6263C166.325 97.5122 161.964 109.41 159.891 106.01C158.449 103.67 161.581 96.7049 162.186 94.2058C163.753 87.8283 165.573 80.9065 168.105 74.8579C169.686 71.0753 172.771 65.0641 168.896 61.4948C165.967 58.7944 164.041 61.8164 162.589 64.194C158.952 70.168 158.293 80.7295 152.414 85.1046C147.687 88.6003 149.439 82.2252 150.123 79.1193C151.092 74.6833 152.724 70.4442 154.181 66.1426C155.342 62.6259 159.113 53.0591 153.311 51.487C151.433 54.5021 150.906 65.7084 145.731 65.5687C142.673 65.4839 144.867 58.9864 144.899 57.2536C145.037 52.0006 144.2 40.6109 139.091 37.6888C134.199 41.6673 142.409 50.9066 137.914 55.2669C134.52 52.048 133.475 47.3272 132.056 43.0512C130.758 39.1385 128.469 34.8614 125.921 31.0807C125.42 29.9815 124.914 28.9125 124.36 27.8503C123.24 25.7083 121.248 23.4093 119.549 21.7219C119.365 21.5337 119.134 21.3524 118.873 21.1656C118.754 20.0111 119.544 19.5943 122.46 20.7247C126.289 22.221 128.362 25.2796 131.294 27.7942C134.268 30.332 137.968 31.681 141.57 33.2296C144.99 34.6679 148.255 36.4509 151.56 38.1012C173.102 48.731 183.823 73.4333 190.022 95.2262C193.083 105.991 195.911 117.103 193.838 128.015C193.046 129.223 191.748 129.968 189.478 129.73C189.812 132.445 182.785 144.406 180.927 140.066Z" fill="#A3CE24"/>
<path d="M129.628 40.8445C129.5 40.4334 129.372 40.0223 129.227 39.6236C132.224 44.2766 133.807 51.78 135.355 56.8087C136.64 60.9674 136.592 67.7891 138.982 71.417C141.016 68.1351 140.9 61.5324 140.621 57.6479C142.215 62.2502 141.868 66.9379 141.367 71.7065C140.92 76.1744 140.393 81.1713 143.946 84.5429C147.847 82.6215 148.378 76.306 150.634 73.0018C150.075 79.1261 145.744 86.7138 145.587 89.1383C145.354 92.5891 151.336 102.824 154.356 104.936C155.593 103.234 155.394 100.373 156.032 98.2985C156.68 96.1642 157.816 94.1643 158.283 91.9976C158.413 97.1436 156.974 101.169 156.194 106.105C155.366 111.311 158.071 116.378 160.706 120.624C167.292 116.811 167.828 107.019 173.244 102.281C173.735 106.281 169.982 111.179 168.444 114.721C166.815 118.51 165.179 122.252 165.442 126.568C165.651 129.897 166.867 134.524 170.414 135.69C174.118 136.931 179.513 132.656 181.837 130.093C180.092 134.359 173.035 137.684 173.614 142.833C174.071 146.936 177.335 148.641 181.236 148.008C184.756 147.43 186.813 144.711 189.03 142.223C188.602 143.31 188.186 144.415 187.709 145.509C186.459 148.404 186.933 151.548 185.53 154.338C184.78 155.833 184.008 156.501 183.065 156.735C180.254 154.242 177.679 151.559 175.25 148.669C169.886 139.399 163.762 130.473 158.207 121.23C153.586 113.18 149.014 104.859 146.089 96.1831C142.174 84.6431 138.18 73.3684 135.123 61.5481C133.484 55.2146 131.896 48.4245 129.864 41.8649C129.851 41.5055 129.742 41.16 129.628 40.8445Z" fill="#4A8209"/>
<path opacity="0.24" d="M120.451 102.187C121.197 107.009 122.482 111.773 124.755 116.482C131.293 130.093 149.618 149.116 166.681 145.388C166.493 139.968 155.372 132.067 151.993 127.811C143.367 116.914 138.097 103.5 133.983 90.3096C130.085 77.8103 132.821 59.0693 121.82 49.902C115.204 54.3153 117.884 65.2138 118.544 71.4644C119.58 81.9272 118.885 92.1717 120.451 102.187Z" fill="#CCEA86"/>
<path opacity="0.2" d="M170.689 64.9845C170.412 64.8879 170.2 64.7722 169.988 64.6564C169.94 64.6633 169.91 64.6579 169.862 64.6648C170.141 64.8392 170.401 64.9481 170.689 64.9845Z" fill="#CCEA86"/>
<path opacity="0.2" d="M179.819 76.5315C178.21 74.8604 176.028 74.2193 175.492 71.5924C175.154 69.9327 176.232 68.3416 175.254 66.7063C174.238 65.0177 171.677 64.324 169.988 64.6563C168.216 63.5458 169.206 61.4109 168.226 59.6977C167.462 58.3339 165.505 57.5626 164.593 56.2497C162.601 53.3453 163.756 48.9117 161.71 46.308C159.492 43.5339 155.563 44.9224 153.04 43.6766C150.789 42.5573 150.515 39.8535 148.416 38.5755C145.857 37.0127 143.526 38.9217 141.374 37.6807C138.011 35.7558 135.701 33.1513 131.987 31.7067C129.752 30.8388 127.714 30.5186 125.615 30.4513C125.215 29.572 124.814 28.6926 124.36 27.8503C123.24 25.7083 121.248 23.4093 119.549 21.7219C119.365 21.5337 119.134 21.3524 118.873 21.1656C118.754 20.0111 119.544 19.5943 122.46 20.7247C126.289 22.221 128.362 25.2796 131.294 27.7942C134.268 30.332 137.968 31.681 141.57 33.2296C144.99 34.6679 148.255 36.4508 151.56 38.1012C173.102 48.731 183.823 73.4333 190.022 95.2262C190.227 95.8995 190.401 96.5674 190.588 97.253C188.843 92.2042 186.282 87.4588 183.704 82.8036C182.542 80.6384 181.495 78.2612 179.819 76.5315Z" fill="#CCEA86"/>
<path opacity="0.25" d="M124.5 106.424C125.412 108.948 126.782 110.995 127.836 113.42C128.934 115.946 128.224 118.939 129.767 121.234C131.032 123.092 133.563 124.122 135.226 125.492C137.559 127.449 139.452 129.87 141.81 131.862C144.059 133.772 146.283 135.647 148.7 137.309C150.055 138.236 152.292 140.812 153.811 141.256C155.065 141.621 155.781 141.781 156.578 140.201C158.224 137.005 154.162 133.355 152.194 131.697C148.496 128.61 143.714 126.802 141.027 122.671C138.872 119.38 138.034 115.411 137.17 111.669C135.981 106.55 134.749 101.143 133.237 96.0899C131.827 91.3343 128.922 88.0639 128.272 82.9639C127.988 80.6619 127.31 79.0807 126.834 77.07C126.293 74.8149 125.715 52.6677 122.117 54.4574C119.155 55.9111 121.387 68.7783 121.432 71.7203C121.552 78.215 122.732 85.0249 122.041 91.4515C121.471 96.6889 122.733 101.495 124.5 106.424Z" fill="#CCEA86"/>
</g>
<g clip-path="url(#clip2_20_340)">
<path d="M98.4651 37.6068C97.3339 39.383 95.4525 40.0957 93.4244 40.464C91.0905 40.8847 89.604 40.0444 88.4235 37.9494C86.7207 34.8763 86.0427 30.7805 85.2954 27.3539C84.7303 24.7677 84.2984 21.7083 84.3197 19.094C84.3308 18.0976 83.9773 16.7245 84.4731 15.8024C86.0188 12.8947 94.3161 21.6973 95.416 22.9003C99.1002 26.9409 101.724 32.4965 98.4651 37.6068Z" fill="#757575"/>
<path d="M98.465 37.6067C99.715 35.6398 100.092 33.6043 99.8788 31.6166C99.4987 33.407 98.7848 34.2458 97.4722 35.3854C95.2453 37.2941 92.2004 34.9372 90.9857 32.6521C86.6152 24.402 85.2364 17.1638 85.3196 15.2238C84.9451 15.2628 84.6557 15.4407 84.4632 15.8004C83.9772 16.7245 84.3209 18.0957 84.3098 19.092C84.2886 21.7064 84.7185 24.7756 85.2855 27.3519C86.0427 30.7805 86.7108 34.8743 88.4136 37.9474C89.5941 40.0424 91.0806 40.8828 93.4145 40.4621C95.4505 40.1055 97.3338 39.3829 98.465 37.6067Z" fill="#575959"/>
<path d="M99.3588 35.7944C96.0228 34.5116 94.1189 31.2158 92.6704 27.9885C92.3671 27.2976 92.0423 26.6127 91.7273 25.9297C91.9851 26.5404 92.2429 27.1511 92.5124 27.7539C93.7391 30.4998 95.3833 36.1698 98.8367 36.9559C99.0447 36.5686 99.2116 36.1834 99.3588 35.7944Z" fill="#D1D1D1"/>
<path d="M90.4649 28.5871C89.6128 26.6887 87.1119 19.4046 86.6251 18.036C86.5318 17.7835 86.4561 17.5445 86.3824 17.2958C86.7478 19.5475 88.7381 26.2632 89.7951 28.7824C91.5933 32.9847 94.2235 36.84 96.8214 39.2422C97.2164 38.9932 97.5719 38.6856 97.8977 38.3213C94.1955 36.3047 91.9867 31.9611 90.4649 28.5871Z" fill="#D1D1D1"/>
<path d="M85.4274 23.7016C85.9086 26.4038 86.3958 29.1276 87.359 31.7099C88.6577 35.1831 90.5678 38.1336 93.1224 40.4968C93.2263 40.4865 93.3203 40.4743 93.4144 40.4621C94.3962 40.287 95.354 40.0256 96.2012 39.6C95.5494 39.4422 94.9361 39.1391 94.4334 38.5825C92.3813 36.3072 90.8108 33.4433 89.5937 30.6484C88.1428 27.3289 86.7321 23.8034 85.8078 20.2913C85.3507 18.5617 85.4312 16.8962 85.5352 15.215C85.3116 15.2121 85.1215 15.2464 84.9415 15.3335C84.5131 18.1027 84.9519 20.9699 85.4274 23.7016Z" fill="#959C9C"/>
<path d="M85.3981 20.7716C85.7245 27.7127 89.1704 34.9571 93.7534 40.3958C94.1668 40.3135 94.5527 40.2156 94.9307 40.106C91.8579 37.2137 89.3687 33.7324 87.8089 29.7702C86.7115 26.9884 85.6941 23.6924 85.3692 20.4501C85.3615 20.4894 85.3656 20.5208 85.3599 20.5502C85.3857 20.6266 85.4037 20.6912 85.3981 20.7716Z" fill="#D1D1D1"/>
<path opacity="0.41" d="M87.0323 17.4634C86.5634 16.9949 85.9307 15.9035 87.121 16.2785C87.8889 16.5201 88.4981 17.2095 89.12 17.6774C91.4659 19.4394 93.2899 21.5785 95.2082 23.7563C97.2447 26.0591 100.074 29.6271 98.9983 32.8916C98.5786 34.1546 97.7795 34.3858 96.849 33.3585C95.5816 31.97 94.7979 30.034 93.9039 28.4025C92.2839 25.427 90.9046 22.3151 88.8484 19.5908C88.2821 18.8383 87.6786 18.1194 87.0323 17.4634Z" fill="#A5AAAA"/>
<path d="M91.2042 20.9371C92.0877 21.9959 93.0809 23.0151 93.7786 24.1905C94.585 25.54 95.6165 26.7806 96.4894 28.1023C96.8509 28.6517 97.1987 29.2188 97.5601 29.7683C97.7339 30.0263 98.1511 30.7598 98.3817 30.1528C98.5133 29.7913 97.9192 28.9723 97.7708 28.6886C97.4048 28.0059 97.08 27.321 96.675 26.6815C95.9974 25.6119 95.1632 24.6136 94.3936 23.5973C93.3715 22.2567 92.3559 21.0396 91.1191 19.9118C90.7744 19.5898 89.9672 18.505 89.4892 18.6053C89.5885 19.2971 90.5414 20.1047 90.9675 20.6361C91.0405 20.7319 91.1233 20.8296 91.2042 20.9371Z" fill="#A5AAAA"/>
</g>
<g clip-path="url(#clip3_20_340)">
<path d="M11.8025 33.2113C11.9656 32.8434 12.2006 32.4433 12.5077 32.0108C15.0432 28.3424 13.1099 25.7867 13.0254 21.552C12.9396 14.7439 15.0037 9.30241 18.711 3.72148C23.9855 -4.20068 32.2221 -11.8921 41.9737 -13.4082C52.3193 -15.0089 57.4881 -3.34926 56.6518 4.86925C55.7532 14.3117 50.6798 22.967 43.2669 28.7808C39.5232 31.6914 35.269 33.9125 30.6913 35.1868C26.3484 36.425 21.7059 35.1197 17.4898 36.3703C14.0042 37.3972 10.1568 36.7404 11.8025 33.2113Z" fill="#FCE1A7"/>
<path d="M26.6889 0.0981773C29.7821 -2.91053 33.9588 -6.12815 38.0036 -7.70058C39.9831 -8.47622 41.6199 -9.5314 43.7998 -9.82495C46.1288 -10.1334 49.1209 -9.85552 50.9595 -8.21931C53.4227 -6.00539 55.387 -1.80824 54.433 1.48845C54.1314 -3.87944 48.1412 -6.44327 43.3434 -5.59889C40.6792 -5.13131 38.1637 -3.95051 35.8753 -2.51625C32.6438 -0.485428 29.3793 2.20148 27.0147 5.21257C24.4828 8.42871 22.8015 12.9532 21.4239 16.7693C20.0291 20.6625 19.4031 24.7047 18.2783 28.6587C17.9375 29.8603 17.2855 30.9676 16.5761 32.0052C15.8333 33.0839 14.5791 35.2933 13.3532 35.7048C13.2384 35.5657 13.2753 35.4364 13.3345 35.2799C13.7456 34.2721 14.658 33.3773 15.2122 32.4179C16.7993 29.6604 16.8066 27.0485 16.9144 23.9496C16.9484 22.8163 16.9935 21.6694 17.1295 20.5511C17.6079 16.6617 19.1115 12.9711 20.5867 9.37114C21.9211 6.11167 24.0271 2.66199 26.6889 0.0981773Z" fill="#F2CF91"/>
<path d="M53.4527 -8.02947C52.4246 -8.86807 51.2173 -9.73894 49.1502 -10.4233C45.8773 -11.4766 44.2271 -11.1607 40.8033 -10.2656C33.1206 -8.29128 26.3661 -2.66892 22.0096 3.68001C19.4209 7.44165 17.9744 11.93 16.9642 16.3873C15.3588 23.4777 16.7699 26.4497 15.2172 30.7604C14.6893 32.2193 11.9825 35.5659 13.6208 36.72C11.8595 36.4444 10.8058 35.3573 11.814 33.1976C11.977 32.8298 12.2121 32.4296 12.5192 31.9972C15.0547 28.3287 13.1214 25.773 13.0369 21.5383C12.9511 14.7303 15.0152 9.28874 18.7225 3.70781C23.9969 -4.21435 32.2335 -11.9058 41.9851 -13.4219C47.1163 -14.1992 50.9628 -11.7221 53.4527 -8.02947Z" fill="#F2CF91"/>
<path opacity="0.34" d="M19.7687 28.6225C20.6035 27.0953 21.2488 25.4364 21.8763 23.6035C24.5973 15.7612 28.2662 8.10021 33.9477 2.058C37.3326 -1.53227 49.3662 -8.81297 52.1283 -0.891944C53.609 3.36615 52.0352 8.93436 50.3498 12.932C47.5694 19.5876 41.9672 26.4002 35.447 29.6641C33.596 30.5901 31.5686 31.1445 29.5523 31.6854C25.8378 32.6849 22.1502 31.3844 18.6563 33.429C17.7441 33.9597 14.0338 35.122 16.2385 33.1187C17.7786 31.7342 18.8808 30.243 19.7687 28.6225Z" fill="#FFF5CA"/>
<path opacity="0.72" d="M52.5789 -9.19738C50.7831 -10.6621 48.9682 -11.8237 46.3566 -12.0644C39.661 -12.6996 32.5961 -8.62795 27.704 -4.30931C21.6611 1.0284 18.5555 6.5993 16.4849 13.1964C15.3997 16.682 15.1463 21.415 15.4351 24.9513C15.8219 29.683 13.3811 30.8563 12.4626 35.2291C12.3818 35.664 12.4365 36.0728 12.5992 36.4331C11.5049 35.9276 11.0356 34.9075 11.8165 33.2224C11.9795 32.8546 12.2146 32.4545 12.5216 32.022C15.0571 28.3536 13.1238 25.7979 13.0393 21.5632C12.9535 14.7551 15.0176 9.31358 18.7249 3.73265C23.9994 -4.18951 32.236 -11.881 41.9876 -13.397C46.5471 -14.1171 50.0947 -12.2252 52.5789 -9.19738Z" fill="#ECBB70"/>
<path d="M16.8059 21.3116C16.8894 20.5375 16.9978 19.7609 17.1448 18.9929C17.3286 18.0958 17.6033 17.2272 17.8918 16.3698C19.2043 12.4095 20.5831 7.75212 23.0199 4.34464C25.6214 0.70725 28.791 -2.53508 32.4899 -5.02696C34.1105 -6.11817 40.2111 -10.4072 46.8452 -10.0043C48.6272 -9.89391 50.8321 -8.84673 52.5162 -6.88121C54.2167 -4.87966 54.9438 -1.96468 55.0634 0.65962C55.4305 8.85808 52.9338 17.293 47.3259 23.4408C44.0542 27.0323 39.8098 30.081 35.3732 31.9939C31.8505 33.5141 28.4703 34.4676 24.6596 34.0457C22.8812 33.8471 21.1142 34.614 19.4116 35.2741C17.9251 35.8372 16.3219 36.4873 14.7476 35.9544C16.8578 36.0821 18.7887 34.8343 20.7794 34.045C25.4586 32.1705 27.9876 34.7796 35.5271 31.0496C40.2708 28.7041 44.1675 24.9622 47.4001 20.7469C48.8839 18.8158 50.3352 16.8125 51.3383 14.6031C53.4097 9.96426 53.9317 4.7901 53.227 -0.223592C53.0493 -1.46117 52.7859 -2.67762 52.2096 -3.7623C51.2196 -5.57136 49.3499 -6.77763 47.3616 -7.30669C45.7478 -7.73515 43.971 -7.79579 42.3132 -7.5545C27.9988 -5.59418 18.5919 9.63366 17.9141 23.1716C17.793 25.5313 17.886 28.0201 16.8641 30.1687C15.9435 32.0812 14.2122 33.5601 13.4509 35.557C13.8143 33.964 14.8124 33.048 15.4997 31.6737C15.9793 30.7218 16.1308 29.3885 16.2856 28.331C16.6245 26.0123 16.5802 23.6316 16.8059 21.3116Z" fill="#ECBB70"/>
<path d="M54 3.50271C54.1057 6.47991 53.5391 10.0014 52.5203 12.7899C50.6604 17.8972 47.7268 22.3336 43.7316 25.9724C40.6428 28.7798 34.9221 32.491 30.0557 33.2794C27.3007 33.7185 24.9102 33.4305 22.1389 33.8335C21.4094 33.9442 20.2632 34.3979 19.5277 34.572C19.9349 34.3805 20.331 34.2028 20.7408 34.0362C25.42 32.1618 27.949 34.7708 35.4885 31.0408C40.2323 28.6954 44.1289 24.9534 47.3616 20.7382C48.8454 18.807 50.2966 16.8038 51.2997 14.5943C53.4097 9.96419 53.9317 4.79003 53.227 -0.223663C53.1382 -0.842453 53.0159 -1.42023 52.855 -2.00671C52.9998 -1.82034 53.8907 0.977814 54 3.50271Z" fill="#C59C5F"/>
<path d="M50.5378 -8.65405C47.5958 -9.66509 44.3507 -9.71683 41.0048 -8.91738C38.1622 -8.23108 30.547 -4.01643 23.9518 3.76178C20.4689 7.86401 17.6078 18.3691 17.3634 20.2641C16.753 22.384 18.0484 28.7446 15.0592 32.8853C14.5626 33.5501 14.0909 34.2125 13.7262 34.9394C13.6705 35.0078 13.6147 35.0761 13.559 35.1445C13.9865 33.8087 14.8492 32.9189 15.4884 31.6874C15.968 30.7355 16.1195 29.4022 16.2743 28.3447C16.6243 26.0124 16.5801 23.6316 16.8058 21.3117C16.8893 20.5375 16.9977 19.7609 17.1446 18.993C17.3285 18.0958 17.6032 17.2272 17.8916 16.3698C19.2041 12.4095 20.583 7.75216 23.0198 4.34468C25.6213 0.707292 28.7909 -2.53503 32.4898 -5.02692C34.1103 -6.11813 40.211 -10.4071 46.8451 -10.0042C47.9953 -9.93106 49.3108 -9.47274 50.5378 -8.65405Z" fill="#C59C5F"/>
<path opacity="0.51" d="M45.6952 20.654C42.5543 24.7848 38.5001 28.2161 34.1219 29.7215C31.8638 30.4748 28.168 31.8993 25.7838 31.1839C23.0971 30.3356 23.4697 27.2478 25.2542 25.6757C27.7084 23.5344 31.0913 22.2416 33.6577 20.2146C36.3459 18.1503 38.777 15.7853 40.7995 13.1098C41.3767 12.3741 41.9265 11.6161 42.4215 10.8133C43.7459 8.79763 44.8912 6.74971 45.9379 4.59866C46.6106 3.32617 47.4638 0.880662 49.173 0.772318C53.259 0.576659 51.642 6.70154 51.1069 9.065C50.325 12.9345 48.3764 17.0589 45.6952 20.654Z" fill="#FFF5CA"/>
<path opacity="0.66" d="M40.1957 19.1959C42.7815 16.1376 45.0108 12.7885 47.1082 9.37738C47.6649 8.44289 48.8939 5.25675 50.4511 5.86664C51.8514 6.4169 50.8934 9.18674 50.5681 10.1734C48.3576 16.9979 43.1529 22.4275 37.6675 27.0817C36.7783 27.8361 29.827 31.1808 30.7973 27.5561C31.0987 26.4588 34.6927 24.6554 35.6154 23.86C37.2747 22.4134 38.7832 20.8438 40.1957 19.1959Z" fill="#FFFAE6"/>
<path opacity="0.51" d="M26.1714 -0.778995C26.2632 -0.863503 26.3661 -0.961682 26.4878 -0.998976C26.6095 -1.03627 26.7775 -0.990318 26.8152 -0.868551C26.8528 -0.746783 26.7885 -0.639914 26.7241 -0.533043C25.802 0.87741 24.6194 2.07542 23.6288 3.42997C22.4288 5.06909 21.5502 6.90201 20.7213 8.72996C20.3026 9.66319 19.895 10.5828 19.4625 11.5048C19.2772 11.9 18.6154 13.8869 18.025 13.5192C17.5691 13.2385 18.1354 12.1524 18.2487 11.7895C18.5457 10.8936 18.8813 10.0063 19.2554 9.12779C20.0286 7.36819 20.9585 5.66822 22.0256 4.08006C23.265 2.33655 24.6415 0.704855 26.1714 -0.778995Z" fill="#FFFAE6"/>
<path opacity="0.51" d="M34.0112 -6.47224C33.8449 -6.38027 33.6923 -6.27711 33.526 -6.18514C32.4885 -5.52891 31.5247 -4.76708 30.5472 -4.01643C30.3723 -3.88593 29.0699 -3.24085 29.4269 -4.04236C29.4664 -4.14675 29.5607 -4.2064 29.6413 -4.27724C30.4662 -4.92474 31.2637 -5.5946 32.1185 -6.19488C33.2675 -6.98781 34.4764 -7.68631 35.7204 -8.28789C38.2084 -9.49105 40.8728 -10.3227 43.5954 -10.8338C43.952 -10.9072 44.3609 -10.9606 44.6376 -10.7122C44.6195 -10.522 44.4446 -10.3916 44.2782 -10.2996C43.5881 -9.9292 42.7429 -9.84458 41.9962 -9.65685C41.1278 -9.43182 40.2518 -9.28134 39.4022 -8.99543C38.4557 -8.67471 37.517 -8.27944 36.6356 -7.81459C35.7517 -7.3746 34.8652 -6.95945 34.0112 -6.47224Z" fill="#FFFAE6"/>
<path opacity="0.51" d="M31.0298 33.9603C32.3791 33.6494 33.6342 33.0342 34.9082 32.4798C39.813 30.3568 43.6817 27.6847 47.228 23.5887C47.4647 23.3265 47.8085 23.1289 48.1 22.9114C48.1806 22.8405 48.311 22.7647 48.4044 22.8181C48.5389 22.9051 48.4488 23.1275 48.3347 23.2394C46.3459 25.5098 44.2894 27.6113 41.8217 29.3774C39.5066 31.0403 36.8521 32.6995 34.1619 33.6467C32.2981 34.4484 30.2022 34.947 28.1852 35.2368C26.2179 35.5216 24.0786 35.2337 22.0943 35.2314C21.8929 35.2265 21.7052 35.2327 21.5209 35.1508C21.5304 34.9992 21.6719 34.9097 21.8159 34.845C23.168 34.195 24.991 34.3389 26.4619 34.3548C27.9739 34.4043 29.545 34.2972 31.0298 33.9603Z" fill="#FFFAE6"/>
</g>
<defs>
<filter id="filter0_f_20_340" x="17.9998" y="46.9999" width="50.7761" height="47.5614" filterUnits="userSpaceOnUse" color-interpolation-filters="sRGB">
<feFlood flood-opacity="0" result="BackgroundImageFix"/>
<feBlend mode="normal" in="SourceGraphic" in2="BackgroundImageFix" result="shape"/>
<feGaussianBlur stdDeviation="3" result="effect1_foregroundBlur_20_340"/>
</filter>
<filter id="filter1_f_20_340" x="70.9998" y="3.00012" width="156.14" height="174.12" filterUnits="userSpaceOnUse" color-interpolation-filters="sRGB">
<feFlood flood-opacity="0" result="BackgroundImageFix"/>
<feBlend mode="normal" in="SourceGraphic" in2="BackgroundImageFix" result="shape"/>
<feGaussianBlur stdDeviation="2" result="effect1_foregroundBlur_20_340"/>
</filter>
<clipPath id="clip0_20_340">
<rect width="31.6874" height="26.3065" fill="white" transform="translate(53.7742 88.5613) rotate(-159.99)"/>
</clipPath>
<clipPath id="clip1_20_340">
<rect width="148.781" height="77.0047" fill="white" transform="translate(159.905 173.12) rotate(-124.797)"/>
</clipPath>
<clipPath id="clip2_20_340">
<rect width="23.69" height="18.67" fill="white" transform="translate(102.862 18.5767) rotate(101.045)"/>
</clipPath>
<clipPath id="clip3_20_340">
<rect width="61" height="36" fill="white" transform="translate(66.4524 1.75391) rotate(129.202)"/>
</clipPath>
</defs>
</svg>
